<?xml version="1.0" encoding="utf-8"?>
<!-- Generator: Adobe Illustrator 26.0.1, SVG Export Plug-In . SVG Version: 6.00 Build 0)  -->
<svg version="1.1" id="Layer_1" xmlns="http://www.w3.org/2000/svg" xmlns:xlink="http://www.w3.org/1999/xlink" x="0px" y="0px"
	 viewBox="0 0 43 32" style="enable-background:new 0 0 43 32;" xml:space="preserve">
<style type="text/css">
	.st0{fill:#0094D7;}
</style>
<g>
	<g>
		<path class="st0" d="M0,23.56v-6.18h4.44c0.94,0,1.51,0.01,1.68,0.02c0.4,0.02,0.7,0.1,0.89,0.22c0.18,0.11,0.32,0.28,0.4,0.49
			c0.08,0.21,0.12,0.51,0.12,0.88c0,0.44-0.06,0.77-0.18,0.98c-0.12,0.21-0.34,0.36-0.65,0.45c0.27,0.05,0.48,0.12,0.61,0.21
			c0.3,0.2,0.45,0.63,0.45,1.27c0,0.5-0.08,0.87-0.24,1.11c-0.11,0.16-0.25,0.28-0.43,0.36c-0.18,0.08-0.44,0.13-0.76,0.15
			c-0.21,0.01-0.84,0.03-1.88,0.03L0,23.56L0,23.56z M1.79,19.82h2.65c0.58,0,0.93-0.02,1.04-0.07c0.15-0.06,0.22-0.21,0.22-0.45
			c0-0.25-0.09-0.39-0.27-0.44c-0.07-0.02-0.4-0.03-1-0.03H1.79C1.79,18.84,1.79,19.82,1.79,19.82z M1.79,22.08h2.66
			c0.55,0,0.88-0.01,0.98-0.01c0.1-0.01,0.19-0.02,0.26-0.05c0.16-0.06,0.24-0.22,0.24-0.47c0-0.26-0.09-0.41-0.28-0.45
			c-0.07-0.02-0.47-0.03-1.2-0.03H1.79L1.79,22.08L1.79,22.08z"/>
		<path class="st0" d="M8.49,17.38h1.97v4.6h4.39v1.57H8.49V17.38z"/>
		<path class="st0" d="M15.39,17.38h1.88v2.84c0.01,0.65,0.03,1.06,0.07,1.24c0.05,0.24,0.2,0.4,0.47,0.48
			c0.26,0.07,0.8,0.11,1.6,0.11c0.65,0,1.1-0.02,1.36-0.06c0.25-0.04,0.43-0.11,0.54-0.22c0.07-0.08,0.12-0.17,0.15-0.29
			c0.03-0.11,0.05-0.3,0.07-0.57c0.01-0.28,0.02-0.51,0.02-0.68v-2.84h1.88v2.84c-0.02,0.99-0.05,1.63-0.09,1.93
			c-0.08,0.52-0.32,0.9-0.74,1.14c-0.24,0.14-0.57,0.23-1.01,0.28c-0.43,0.05-1.15,0.07-2.14,0.07c-0.75,0-1.32-0.01-1.72-0.04
			c-0.4-0.03-0.76-0.08-1.05-0.14c-0.66-0.16-1.05-0.55-1.16-1.19c-0.04-0.24-0.07-0.47-0.08-0.66c-0.01-0.2-0.02-0.66-0.02-1.38
			L15.39,17.38L15.39,17.38L15.39,17.38z"/>
		<path class="st0" d="M24.35,17.38h6.83v1.45H26.2v0.89h4.73v1.35H26.2v1h5.02v1.48h-6.87L24.35,17.38L24.35,17.38z"/>
	</g>
	<g>
		<path class="st0" d="M6,29.52h1.88c0.01,0.3,0.02,0.5,0.02,0.58c0,0.48-0.07,0.85-0.21,1.12c-0.16,0.3-0.46,0.51-0.92,0.62
			C6.31,31.95,5.53,32,4.41,32c-1.18,0-2.01-0.02-2.51-0.07c-0.5-0.05-0.88-0.13-1.13-0.26c-0.23-0.12-0.39-0.28-0.51-0.48
			c-0.11-0.2-0.18-0.47-0.22-0.82C0.01,30.1,0,29.59,0,28.86c0-0.71,0.01-1.23,0.04-1.55c0.03-0.32,0.08-0.56,0.16-0.74
			c0.17-0.39,0.52-0.65,1.04-0.76c0.52-0.12,1.58-0.17,3.17-0.17c0.8,0,1.37,0.02,1.74,0.05c0.36,0.04,0.65,0.1,0.86,0.2
			c0.28,0.13,0.48,0.33,0.59,0.59c0.11,0.26,0.17,0.64,0.17,1.15c0,0.03,0,0.13,0,0.31H5.9c-0.01-0.2-0.02-0.34-0.04-0.41
			c-0.02-0.07-0.05-0.13-0.1-0.17c-0.07-0.06-0.26-0.11-0.55-0.14c-0.29-0.03-0.74-0.04-1.33-0.04c-0.59,0-0.99,0.01-1.22,0.04
			c-0.23,0.03-0.39,0.08-0.48,0.15c-0.11,0.09-0.19,0.24-0.23,0.46c-0.04,0.21-0.07,0.55-0.07,1.02s0.02,0.8,0.06,0.99
			c0.04,0.19,0.11,0.33,0.23,0.41c0.11,0.08,0.27,0.14,0.5,0.16c0.23,0.03,0.64,0.04,1.22,0.04c0.72,0,1.2-0.01,1.44-0.04
			c0.24-0.02,0.4-0.08,0.49-0.16C5.93,30.15,5.99,29.9,6,29.52z"/>
		<path class="st0" d="M8.97,31.9v-6.18h4.55c1.07,0,1.71,0.01,1.92,0.03c0.21,0.02,0.41,0.09,0.61,0.21
			c0.24,0.14,0.4,0.34,0.48,0.59c0.09,0.25,0.13,0.64,0.13,1.17c0,0.45-0.03,0.78-0.08,0.99c-0.06,0.21-0.16,0.38-0.31,0.51
			c-0.17,0.14-0.42,0.23-0.75,0.28c0.39,0.03,0.68,0.14,0.85,0.34c0.1,0.12,0.16,0.26,0.19,0.43c0.03,0.17,0.04,0.52,0.04,1.05v0.58
			h-1.85v-0.33c0-0.35-0.01-0.59-0.04-0.74c-0.03-0.15-0.07-0.26-0.14-0.34c-0.07-0.07-0.17-0.12-0.29-0.14
			c-0.12-0.02-0.38-0.03-0.77-0.03h-2.65v1.57L8.97,31.9L8.97,31.9z M10.85,28.78h2.65c0.46-0.01,0.73-0.02,0.82-0.02
			c0.09-0.01,0.16-0.03,0.23-0.07c0.08-0.05,0.14-0.13,0.17-0.23c0.03-0.1,0.05-0.25,0.05-0.46c0-0.2-0.02-0.35-0.06-0.45
			c-0.04-0.1-0.1-0.17-0.2-0.22c-0.07-0.03-0.14-0.05-0.24-0.05c-0.09-0.01-0.35-0.01-0.79-0.01h-2.64V28.78L10.85,28.78z"/>
		<path class="st0" d="M21.86,25.63c1.33,0,2.25,0.03,2.75,0.1c0.72,0.1,1.16,0.44,1.33,1.03c0.11,0.4,0.17,1.09,0.17,2.05
			c0,0.96-0.06,1.65-0.17,2.05c-0.16,0.59-0.6,0.93-1.33,1.03c-0.5,0.07-1.41,0.1-2.73,0.1c-1.34,0-2.27-0.03-2.77-0.1
			c-0.72-0.1-1.16-0.44-1.32-1.03c-0.11-0.4-0.17-1.1-0.17-2.09c0-0.94,0.06-1.61,0.17-2.01c0.16-0.59,0.6-0.93,1.32-1.03
			C19.61,25.67,20.52,25.63,21.86,25.63z M21.87,27.24c-1,0-1.6,0.03-1.8,0.08c-0.23,0.06-0.38,0.2-0.46,0.41
			c-0.07,0.21-0.11,0.63-0.11,1.25c0,0.38,0.02,0.65,0.06,0.82c0.07,0.31,0.3,0.49,0.68,0.54c0.28,0.04,0.82,0.05,1.63,0.05
			c0.76,0,1.26-0.01,1.51-0.04c0.25-0.03,0.44-0.09,0.56-0.18c0.11-0.08,0.18-0.21,0.22-0.37c0.04-0.16,0.06-0.43,0.06-0.81
			c0-0.44-0.01-0.77-0.05-0.98c-0.03-0.21-0.08-0.37-0.16-0.47c-0.1-0.13-0.26-0.22-0.49-0.25C23.29,27.25,22.74,27.24,21.87,27.24z
			"/>
		<path class="st0" d="M27.04,29.86h1.82c0,0.3,0.06,0.5,0.19,0.58c0.09,0.06,0.21,0.09,0.35,0.1c0.14,0.01,0.59,0.02,1.35,0.02
			c0.79,0,1.27-0.01,1.43-0.02c0.16-0.01,0.29-0.03,0.38-0.07c0.14-0.06,0.21-0.21,0.21-0.47c0-0.18-0.05-0.31-0.15-0.37
			c-0.1-0.06-0.3-0.1-0.6-0.1c-0.23,0-0.72-0.02-1.47-0.05c-0.77-0.04-1.27-0.06-1.5-0.06c-0.45-0.01-0.8-0.06-1.04-0.13
			c-0.24-0.07-0.43-0.19-0.57-0.35c-0.23-0.26-0.35-0.71-0.35-1.33c0-0.7,0.13-1.19,0.4-1.47c0.2-0.22,0.51-0.37,0.93-0.43
			c0.42-0.06,1.27-0.09,2.56-0.09c0.91,0,1.55,0.03,1.91,0.08c0.57,0.08,0.96,0.24,1.17,0.47c0.21,0.24,0.32,0.63,0.32,1.19
			c0,0.05,0,0.15,0,0.29h-1.82c-0.01-0.17-0.02-0.29-0.04-0.35c-0.02-0.06-0.07-0.11-0.13-0.15c-0.08-0.05-0.22-0.08-0.43-0.09
			c-0.2-0.01-0.64-0.02-1.3-0.02c-0.8,0-1.29,0.02-1.46,0.07c-0.17,0.05-0.26,0.19-0.26,0.41c0,0.22,0.09,0.35,0.26,0.4
			c0.14,0.04,0.81,0.08,1.99,0.11c1,0.03,1.66,0.07,2,0.11c0.34,0.04,0.6,0.12,0.8,0.23c0.23,0.14,0.39,0.32,0.48,0.56
			s0.14,0.58,0.14,1.02c0,0.58-0.08,1.01-0.23,1.3c-0.12,0.21-0.28,0.36-0.49,0.47c-0.21,0.1-0.5,0.17-0.88,0.21
			c-0.41,0.04-1.16,0.05-2.27,0.05c-0.93,0-1.61-0.02-2.06-0.07c-0.44-0.05-0.78-0.13-1-0.26c-0.23-0.13-0.39-0.31-0.48-0.52
			c-0.09-0.22-0.13-0.55-0.13-0.99L27.04,29.86z"/>
		<path class="st0" d="M35.45,29.86h1.82c0,0.3,0.06,0.5,0.19,0.58c0.09,0.06,0.21,0.09,0.35,0.1c0.14,0.01,0.59,0.02,1.35,0.02
			c0.8,0,1.27-0.01,1.43-0.02c0.16-0.01,0.29-0.03,0.38-0.07c0.14-0.06,0.21-0.21,0.21-0.47c0-0.18-0.05-0.31-0.15-0.37
			c-0.1-0.06-0.3-0.1-0.6-0.1c-0.23,0-0.72-0.02-1.47-0.05c-0.77-0.04-1.27-0.06-1.5-0.06c-0.45-0.01-0.8-0.06-1.04-0.13
			c-0.24-0.07-0.43-0.19-0.57-0.35c-0.23-0.26-0.35-0.71-0.35-1.33c0-0.7,0.13-1.19,0.4-1.47c0.2-0.22,0.51-0.37,0.93-0.43
			c0.42-0.06,1.27-0.09,2.56-0.09c0.91,0,1.54,0.03,1.91,0.08c0.57,0.08,0.96,0.24,1.17,0.47c0.21,0.24,0.32,0.63,0.32,1.19
			c0,0.05,0,0.15,0,0.29h-1.82c-0.01-0.17-0.02-0.29-0.04-0.35c-0.02-0.06-0.07-0.11-0.13-0.15c-0.08-0.05-0.22-0.08-0.43-0.09
			c-0.21-0.01-0.64-0.02-1.3-0.02c-0.8,0-1.29,0.02-1.46,0.07c-0.17,0.05-0.26,0.19-0.26,0.41c0,0.22,0.09,0.35,0.26,0.4
			c0.14,0.04,0.81,0.08,1.99,0.11c1,0.03,1.66,0.07,2,0.11c0.34,0.04,0.6,0.12,0.8,0.23c0.23,0.14,0.39,0.32,0.48,0.56
			c0.09,0.24,0.14,0.58,0.14,1.02c0,0.58-0.08,1.01-0.23,1.3c-0.12,0.21-0.28,0.36-0.49,0.47s-0.5,0.17-0.88,0.21
			c-0.41,0.04-1.16,0.05-2.27,0.05c-0.93,0-1.61-0.02-2.06-0.07c-0.44-0.05-0.78-0.13-1-0.26c-0.23-0.13-0.39-0.31-0.48-0.52
			c-0.09-0.22-0.13-0.55-0.13-0.99L35.45,29.86z"/>
	</g>
</g>
<polygon id="new_cross" class="st0" points="29,4.37 24.63,4.37 24.63,0 18.37,0 18.37,4.37 14,4.37 14,10.63 18.37,10.63 18.37,15 
	24.63,15 24.63,10.63 29,10.63 "/>
</svg>
