<?xml version="1.0" encoding="utf-8"?>
<!-- Generator: Adobe Illustrator 26.0.1, SVG Export Plug-In . SVG Version: 6.00 Build 0)  -->
<svg version="1.1" id="Layer_1" xmlns="http://www.w3.org/2000/svg" xmlns:xlink="http://www.w3.org/1999/xlink" x="0px" y="0px"
	 viewBox="0 0 43 32" style="enable-background:new 0 0 43 32;" xml:space="preserve">
<style type="text/css">
	.st0{fill-rule:evenodd;clip-rule:evenodd;fill:#EC202A;}
	.st1{fill-rule:evenodd;clip-rule:evenodd;fill:#FFFFFF;}
	.st2{fill-rule:evenodd;clip-rule:evenodd;fill:#0091D1;}
</style>
<path class="st0" d="M21.5,0c-5.34,0-9.67,4.33-9.67,9.67c0,5.34,4.33,9.67,9.67,9.67c5.34,0,9.68-4.33,9.68-9.67
	C31.17,4.33,26.84,0,21.5,0L21.5,0z"/>
<polygon class="st1" points="16.93,13.88 26.07,13.88 26.07,10.99 16.93,10.99 16.93,13.88 "/>
<path class="st1" d="M21.2,6.68c0.12,0.15,0.22,0.2,0.33,0.2c0.11,0,0.21-0.04,0.33-0.2c0,0,1.53-2.01,1.61-2.1
	c0.21-0.26,0.46-0.26,0.66,0l1.95,2.46v3.95l-1.93-2.48c-0.23-0.28-0.49-0.29-0.71,0c-0.08,0.1-1.56,2.07-1.56,2.07
	c-0.23,0.29-0.45,0.29-0.68,0c0,0-1.52-1.98-1.59-2.07c-0.22-0.28-0.47-0.29-0.71,0l-1.95,2.48l0-3.94c0,0,1.86-2.33,1.98-2.48
	c0.21-0.26,0.46-0.26,0.67,0C19.67,4.69,21.2,6.68,21.2,6.68L21.2,6.68z"/>
<g>
	<path class="st2" d="M11.15,29.17c0,1.48-0.5,2.19-2.23,2.19l-1.08,0v-4.15l1.15,0C10.57,27.21,11.15,27.77,11.15,29.17
		L11.15,29.17L11.15,29.17z M13.47,29.33c0-1.73-1.41-2.35-3.12-2.39v-0.06c1.45-0.12,2.65-0.73,2.65-2.2
		c0-1.63-1.35-1.94-2.86-1.94c-1.82,0-3.95,0.05-5.76,0v0.45c0.38-0.03,1.31,0.03,1.31,0.51v7.18c0,0.46-0.95,0.53-1.31,0.53v0.44
		c1.75-0.05,3.83,0,5.59,0C11.82,31.85,13.47,31.22,13.47,29.33L13.47,29.33z M10.78,24.95c0,1.14-0.5,1.78-1.82,1.78H7.84v-3.51
		c0.14-0.01,0.62-0.03,0.76-0.03h0.39C10.34,23.19,10.78,23.79,10.78,24.95L10.78,24.95z"/>
	<path class="st2" d="M25.19,31.83c-0.81,0-1.63-0.01-2.44,0.01V31.4c0.37,0,1.4-0.02,1.4-0.52v-6.69h-0.03l-3.73,7.78H20
		l-3.63-7.78h-0.03v6.69c0,0.51,1.07,0.52,1.45,0.52l0.01,0.45c-1.01-0.03-2.4-0.06-3.4,0V31.4c0.39,0,1.31-0.03,1.31-0.52v-7.17
		c0-0.48-0.96-0.52-1.31-0.52l-0.01-0.45c1.16,0.05,2.4,0.05,3.55,0l3.11,6.52l3.17-6.5c1.11,0.05,2.31,0.04,3.42-0.01v0.45
		c-0.37,0-1.34,0.03-1.34,0.52v7.17c0,0.5,0.96,0.52,1.34,0.52v0.45C26.83,31.82,26,31.83,25.19,31.83L25.19,31.83z"/>
	<path class="st2" d="M38.62,27.28c0-3.01-1.84-4.71-5.16-4.71c-3.32,0-5.18,1.68-5.18,4.71c0,3.03,1.84,4.72,5.18,4.72
		C36.79,32,38.62,30.31,38.62,27.28L38.62,27.28L38.62,27.28z M36.21,27.28c0,1.78-0.17,4.27-2.75,4.27c-2.58,0-2.77-2.49-2.77-4.27
		c0-1.78,0.19-4.25,2.77-4.25C36.02,23.03,36.21,25.52,36.21,27.28L36.21,27.28z"/>
</g>
</svg>
