<?xml version="1.0" encoding="utf-8"?>
<!-- Generator: Adobe Illustrator 26.0.1, SVG Export Plug-In . SVG Version: 6.00 Build 0)  -->
<svg version="1.1" id="Layer_1" xmlns="http://www.w3.org/2000/svg" xmlns:xlink="http://www.w3.org/1999/xlink" x="0px" y="0px"
	 viewBox="0 0 43 32" style="enable-background:new 0 0 43 32;" xml:space="preserve">
<style type="text/css">
	.st0{fill:#838271;}
	.st1{fill:#BA0C2F;}
	.st2{fill:#FFFFFF;}
</style>
<path class="st0" d="M1.47,7c0,0.35,0.04,0.67,0.12,0.99c0.08,0.31,0.19,0.57,0.36,0.8s0.38,0.4,0.64,0.53s0.57,0.19,0.93,0.19
	c0.26,0,0.51-0.04,0.71-0.12c0.21-0.08,0.39-0.17,0.53-0.27C4.94,9.01,5.1,8.88,5.23,8.74c0.08,0.09,0.18,0.22,0.3,0.4
	C5.64,9.32,5.7,9.49,5.7,9.65c0,0.05-0.01,0.1-0.04,0.16C5.61,9.89,5.54,10,5.41,10.11c-0.18,0.16-0.45,0.3-0.8,0.41
	c-0.35,0.12-0.78,0.18-1.28,0.18c-0.32,0-0.67-0.05-1.06-0.13c-0.39-0.09-0.75-0.27-1.08-0.53C0.84,9.78,0.56,9.41,0.34,8.93
	C0.1,8.45,0,7.82,0,7.04c0-0.73,0.12-1.32,0.36-1.8C0.6,4.77,0.89,4.4,1.24,4.12c0.35-0.27,0.73-0.45,1.12-0.57
	C2.75,3.45,3.1,3.4,3.4,3.4c0.36,0,0.7,0.04,0.99,0.12c0.3,0.08,0.54,0.18,0.75,0.3c0.19,0.12,0.35,0.23,0.44,0.35
	c0.1,0.13,0.14,0.25,0.14,0.38c0,0.25-0.18,0.58-0.4,0.89C5.16,5.25,4.91,5.06,4.6,4.88C4.29,4.69,3.94,4.6,3.55,4.6
	c-0.38,0-0.69,0.06-0.95,0.18S2.13,5.08,1.96,5.3s-0.3,0.48-0.38,0.78C1.5,6.34,1.47,6.66,1.47,7L1.47,7z M12.89,10.32
	c-0.1-0.14-0.18-0.36-0.22-0.64c-0.05-0.3-0.06-0.73-0.06-1.27V5.98c0-0.43-0.04-0.8-0.13-1.14c-0.09-0.32-0.23-0.6-0.44-0.83
	c-0.21-0.22-0.49-0.39-0.83-0.49c-0.34-0.1-0.78-0.17-1.28-0.17c-0.3,0-0.61,0.03-0.92,0.08C8.69,3.47,8.4,3.54,8.14,3.63
	C7.88,3.72,7.68,3.82,7.51,3.94C7.35,4.06,7.26,4.19,7.26,4.32c0,0.09,0.03,0.22,0.09,0.4C7.42,4.9,7.49,5.06,7.6,5.21
	c0.31-0.22,0.62-0.38,0.95-0.51c0.32-0.13,0.73-0.19,1.19-0.19c0.57,0,0.96,0.1,1.15,0.32c0.21,0.22,0.3,0.53,0.3,0.95v0.23
	C11.1,6,11,6,10.88,6h-0.31C10.2,6.02,9.8,6.06,9.37,6.12C8.95,6.18,8.53,6.31,8.16,6.51C7.78,6.7,7.46,6.95,7.2,7.27
	C6.94,7.6,6.81,8.01,6.81,8.52c0,0.41,0.08,0.76,0.21,1.04c0.13,0.27,0.32,0.49,0.54,0.65c0.22,0.16,0.47,0.27,0.73,0.32
	c0.27,0.06,0.53,0.09,0.79,0.09c0.54,0,0.99-0.08,1.32-0.26c0.34-0.17,0.62-0.38,0.86-0.62c0.04,0.29,0.16,0.49,0.38,0.6
	c0.21,0.12,0.45,0.17,0.74,0.17c0.09,0,0.17,0,0.26-0.01c0.09-0.01,0.16-0.01,0.21-0.04c0.05-0.01,0.09-0.05,0.09-0.1
	C12.9,10.36,12.9,10.33,12.89,10.32L12.89,10.32z M11.19,8.47c0,0.12-0.05,0.23-0.14,0.36c-0.1,0.13-0.23,0.23-0.4,0.34
	c-0.17,0.1-0.36,0.19-0.57,0.26c-0.22,0.06-0.44,0.1-0.69,0.1c-0.45,0-0.76-0.12-0.93-0.32C8.29,8.99,8.21,8.74,8.21,8.44
	c0-0.31,0.08-0.56,0.23-0.74S8.8,7.36,9.05,7.26c0.25-0.1,0.53-0.18,0.83-0.22c0.31-0.04,0.61-0.05,0.91-0.05h0.4V8.47z
	 M20.43,10.49h-1.44V6.51c0-0.27-0.01-0.53-0.03-0.76c-0.01-0.23-0.06-0.44-0.16-0.61c-0.08-0.17-0.22-0.3-0.4-0.39
	S17.97,4.6,17.63,4.6c-0.47,0-0.88,0.09-1.22,0.31c-0.34,0.22-0.51,0.51-0.51,0.83v4.73h-1.45V3.5c0.03,0,0.05,0,0.08-0.01h0.21
	c0.26,0,0.49,0.06,0.7,0.18s0.34,0.32,0.38,0.61c0.22-0.23,0.53-0.45,0.92-0.64c0.39-0.18,0.84-0.29,1.37-0.29
	c0.67,0,1.18,0.14,1.53,0.45c0.35,0.3,0.58,0.67,0.7,1.12c0.05,0.19,0.08,0.41,0.09,0.66c0.01,0.25,0.01,0.48,0.01,0.71L20.43,10.49
	z M27.95,10.32c-0.1-0.14-0.18-0.36-0.22-0.64c-0.05-0.3-0.06-0.73-0.06-1.27V5.98c0-0.43-0.04-0.8-0.13-1.14
	c-0.09-0.32-0.23-0.6-0.45-0.83c-0.21-0.22-0.49-0.39-0.83-0.49s-0.78-0.17-1.28-0.17c-0.3,0-0.61,0.03-0.92,0.08
	s-0.6,0.12-0.86,0.21c-0.26,0.09-0.47,0.19-0.64,0.31c-0.16,0.12-0.25,0.25-0.25,0.38c0,0.09,0.03,0.22,0.09,0.4
	c0.06,0.18,0.14,0.34,0.25,0.49c0.31-0.22,0.62-0.38,0.95-0.51c0.32-0.13,0.73-0.19,1.19-0.19c0.57,0,0.96,0.1,1.15,0.32
	c0.19,0.22,0.3,0.53,0.3,0.95v0.23C26.15,6,26.05,6,25.93,6h-0.31c-0.36,0.01-0.76,0.05-1.19,0.12c-0.44,0.06-0.84,0.19-1.23,0.39
	c-0.39,0.19-0.7,0.44-0.96,0.76c-0.26,0.32-0.39,0.74-0.39,1.24c0,0.41,0.06,0.76,0.21,1.04c0.14,0.27,0.32,0.49,0.54,0.65
	c0.22,0.16,0.45,0.27,0.73,0.32c0.27,0.05,0.53,0.09,0.79,0.09c0.54,0,0.99-0.08,1.32-0.26c0.34-0.18,0.62-0.38,0.86-0.62
	c0.04,0.29,0.16,0.49,0.38,0.6c0.22,0.1,0.45,0.17,0.74,0.17c0.09,0,0.17,0,0.26-0.01c0.09-0.01,0.16-0.01,0.21-0.04
	c0.05-0.01,0.09-0.05,0.09-0.1C27.98,10.36,27.97,10.33,27.95,10.32L27.95,10.32z M26.27,8.47c0,0.12-0.05,0.23-0.14,0.36
	c-0.1,0.13-0.23,0.23-0.4,0.34c-0.17,0.1-0.36,0.19-0.58,0.26c-0.22,0.06-0.45,0.1-0.69,0.1c-0.45,0-0.76-0.12-0.93-0.32
	s-0.25-0.47-0.25-0.76c0-0.31,0.08-0.56,0.23-0.74s0.36-0.34,0.61-0.44s0.53-0.18,0.83-0.22c0.31-0.04,0.61-0.05,0.91-0.05h0.4
	L26.27,8.47z M35.71,10.32c-0.1-0.14-0.18-0.36-0.22-0.64c-0.05-0.3-0.06-0.73-0.06-1.27v-7.2c0-0.25-0.03-0.45-0.09-0.61
	c-0.06-0.16-0.13-0.27-0.23-0.38c-0.1-0.09-0.21-0.16-0.34-0.18S34.5,0,34.39,0h-0.22c-0.08,0-0.14,0.01-0.18,0.01v4.03
	c-0.16-0.14-0.39-0.3-0.71-0.44c-0.32-0.14-0.73-0.22-1.22-0.22c-0.38,0-0.73,0.08-1.08,0.22s-0.65,0.36-0.92,0.66
	c-0.26,0.3-0.47,0.67-0.64,1.15c-0.16,0.47-0.23,1.02-0.23,1.67c0,0.67,0.08,1.24,0.25,1.7c0.16,0.45,0.38,0.83,0.65,1.1
	c0.27,0.27,0.58,0.47,0.93,0.58c0.35,0.12,0.71,0.18,1.08,0.18c0.52,0,0.95-0.1,1.27-0.31c0.34-0.21,0.57-0.4,0.71-0.6
	c0.04,0.29,0.16,0.49,0.38,0.6c0.22,0.1,0.45,0.17,0.74,0.17c0.09,0,0.17,0,0.26-0.01c0.09-0.01,0.16-0.01,0.21-0.04
	c0.05-0.01,0.09-0.05,0.09-0.1C35.72,10.36,35.72,10.33,35.71,10.32L35.71,10.32z M33.97,8.58c0,0.12-0.04,0.23-0.12,0.34
	c-0.08,0.1-0.18,0.21-0.31,0.3c-0.14,0.09-0.3,0.16-0.49,0.21c-0.19,0.05-0.39,0.09-0.61,0.09c-0.32,0-0.61-0.06-0.83-0.19
	s-0.4-0.31-0.54-0.54c-0.14-0.23-0.23-0.51-0.29-0.82S30.7,7.31,30.7,6.94c0-0.79,0.16-1.4,0.45-1.8s0.71-0.61,1.23-0.61
	c0.22,0,0.41,0.03,0.6,0.08c0.18,0.05,0.32,0.12,0.47,0.19c0.13,0.08,0.25,0.16,0.32,0.25l0.19,0.19L33.97,8.58z M42.98,10.32
	c-0.1-0.14-0.18-0.36-0.22-0.64c-0.05-0.3-0.06-0.73-0.06-1.27V5.98c0-0.43-0.04-0.8-0.13-1.14c-0.09-0.32-0.23-0.6-0.45-0.83
	c-0.21-0.22-0.49-0.39-0.83-0.49c-0.34-0.1-0.78-0.17-1.28-0.17c-0.3,0-0.61,0.03-0.92,0.08s-0.6,0.12-0.86,0.21
	s-0.47,0.19-0.64,0.31c-0.16,0.12-0.25,0.25-0.25,0.38c0,0.09,0.03,0.22,0.09,0.4c0.06,0.18,0.14,0.34,0.25,0.49
	c0.31-0.22,0.62-0.38,0.95-0.51c0.32-0.13,0.73-0.19,1.19-0.19c0.57,0,0.96,0.1,1.15,0.32c0.19,0.22,0.3,0.53,0.3,0.95v0.23
	C41.18,6,41.08,6,40.96,6h-0.31c-0.36,0.01-0.76,0.05-1.19,0.12c-0.44,0.06-0.84,0.19-1.23,0.39s-0.7,0.44-0.96,0.76
	s-0.39,0.74-0.39,1.24c0,0.41,0.06,0.76,0.21,1.04c0.14,0.27,0.32,0.49,0.54,0.65c0.22,0.16,0.45,0.27,0.73,0.32
	c0.27,0.05,0.53,0.09,0.79,0.09c0.54,0,0.99-0.08,1.32-0.26s0.62-0.38,0.86-0.62c0.04,0.29,0.16,0.49,0.38,0.6
	c0.22,0.1,0.45,0.17,0.74,0.17c0.09,0,0.17,0,0.26-0.01c0.09-0.01,0.16-0.01,0.21-0.04c0.05-0.01,0.09-0.05,0.09-0.1
	C43.01,10.36,42.99,10.33,42.98,10.32L42.98,10.32z M41.3,8.47c0,0.12-0.05,0.23-0.14,0.36c-0.1,0.13-0.23,0.23-0.4,0.34
	c-0.17,0.1-0.36,0.19-0.58,0.26c-0.22,0.06-0.45,0.1-0.69,0.1c-0.45,0-0.76-0.12-0.93-0.32C38.38,9,38.3,8.74,38.3,8.44
	c0-0.31,0.08-0.56,0.23-0.74c0.16-0.18,0.36-0.34,0.61-0.44s0.53-0.18,0.83-0.22c0.31-0.04,0.61-0.05,0.91-0.05h0.4L41.3,8.47z"/>
<g>
	<g>
		<path class="st1" d="M27.86,21.44c-0.99,0-1.59,0.98-1.59,1.96c0,0.15,0.02,0.27,0.04,0.38c1.5-0.29,2.22-1.08,2.22-1.71
			C28.53,21.66,28.28,21.44,27.86,21.44z"/>
		<path class="st1" d="M14.58,23.36c0.06-0.91,0.23-1.81,0.4-2.53c0.51-2.21,1.36-3.88,2.58-3.88c0.84,0,1.16,0.58,1.17,1.28
			c0.02,1.83-1.46,4.05-3.23,5.46c-0.03,0.88,0.26,1.28,0.77,1.28c0.92,0,1.85-0.94,2.64-2.84c0.11-0.26,0.22-0.56,0.32-0.84
			c0.16-0.4,0.99-0.17,0.87,0.23c-0.25,0.85-0.66,1.97-0.66,2.72c0,0.49,0.25,0.71,0.62,0.7c0.51-0.01,0.93-0.38,1.23-0.74
			c0,0,0.21-1.06,0.27-1.34c0.87-4.11,1.86-5.9,3.17-5.9c0.78,0,1.18,0.48,1.18,1.25c0,1.43-0.99,3.07-2.87,5.32
			c0.59,0.21,1.24,0.36,2.06,0.36h0.21c-0.02-0.12-0.04-0.32-0.04-0.49c0-1.6,1.15-2.74,2.55-2.74c0.92,0,1.64,0.43,1.64,1.38
			c0,1.19-1.26,2.13-2.85,2.46c0.25,0.3,0.74,0.5,1.42,0.5c1.52,0,2.7-0.75,3.48-1.48V12.64H12.16v12
			C13.06,24.31,13.89,23.86,14.58,23.36L14.58,23.36z M20.27,18.93c0.36,0,0.65,0.3,0.63,0.65c-0.02,0.36-0.32,0.65-0.69,0.65
			s-0.65-0.3-0.63-0.65C19.6,19.23,19.92,18.93,20.27,18.93z"/>
		<path class="st1" d="M24.73,17.72c-0.47,0-1.41,1.34-2.22,5.22c1.38-1.75,2.51-3.73,2.51-4.76
			C25.01,17.92,24.94,17.72,24.73,17.72L24.73,17.72z M28.05,25.83c-1.33,0-2.08-0.52-2.47-1.17c-0.13,0.01-0.29,0.01-0.42,0.01
			c-0.7,0-1.34-0.1-1.78-0.24c0.36,0.77,0.59,1.77,0.59,2.69c0,1.74-0.63,2.89-1.83,2.89c-0.85,0-1.34-0.62-1.35-1.9
			c-0.01-0.93,0.11-1.71,0.3-2.76c-0.29,0.24-0.7,0.41-1.18,0.42c-0.88,0-1.37-0.56-1.41-1.33c-0.68,0.92-1.51,1.36-2.37,1.36
			c-0.93,0-1.43-0.6-1.53-1.5c-0.67,0.43-1.49,0.87-2.42,1.2V32h19.36v-7.41C30.49,25.41,29.3,25.83,28.05,25.83L28.05,25.83z
			 M17.56,17.72c-0.5,0-1.39,1.51-1.95,4.81c1.58-1.53,2.22-3.52,2.22-4.32C17.84,17.85,17.74,17.72,17.56,17.72L17.56,17.72z"/>
		<path class="st1" d="M22.2,24.4c-0.21,0.95-0.48,2.64-0.48,3.69c0,0.62,0.13,1.01,0.49,1.01c0.63,0,0.81-1.09,0.81-1.91
			c0-1.06-0.27-2.16-0.69-2.93L22.2,24.4z"/>
	</g>
	<g>
		<path class="st2" d="M20.21,20.25c0.36,0,0.67-0.3,0.69-0.65c0.02-0.36-0.27-0.65-0.63-0.65c-0.36,0-0.67,0.3-0.69,0.65
			C19.57,19.95,19.85,20.25,20.21,20.25z"/>
		<path class="st2" d="M28.05,25.01c-0.68,0-1.17-0.22-1.42-0.5c1.59-0.33,2.85-1.27,2.85-2.46c0-0.95-0.72-1.38-1.64-1.38
			c-1.42,0-2.55,1.14-2.55,2.74c0,0.17,0.02,0.38,0.04,0.49h-0.21c-0.82,0-1.48-0.15-2.06-0.36c1.89-2.26,2.87-3.9,2.87-5.32
			c0-0.78-0.39-1.25-1.18-1.25c-1.31,0-2.31,1.78-3.17,5.9c-0.06,0.3-0.27,1.34-0.27,1.34c-0.3,0.36-0.72,0.73-1.23,0.74
			c-0.37,0.01-0.62-0.2-0.62-0.7c0-0.74,0.4-1.86,0.66-2.72c0.12-0.39-0.71-0.63-0.87-0.23c-0.12,0.29-0.22,0.58-0.32,0.84
			c-0.8,1.9-1.71,2.84-2.64,2.84c-0.51,0-0.8-0.4-0.77-1.28c1.77-1.4,3.24-3.63,3.23-5.46c-0.01-0.69-0.32-1.28-1.17-1.28
			c-1.21,0-2.07,1.68-2.58,3.88c-0.17,0.72-0.34,1.62-0.4,2.53c-0.69,0.5-1.51,0.95-2.41,1.29v0.85c0.93-0.33,1.76-0.78,2.42-1.2
			c0.1,0.9,0.6,1.5,1.53,1.5c0.86,0,1.69-0.45,2.37-1.36c0.04,0.77,0.52,1.33,1.41,1.33c0.48,0,0.9-0.18,1.18-0.42
			c-0.19,1.05-0.31,1.83-0.3,2.76c0.02,1.28,0.5,1.9,1.35,1.9c1.19,0,1.82-1.15,1.83-2.89c0-0.91-0.23-1.92-0.59-2.69
			c0.46,0.15,1.08,0.24,1.78,0.24c0.14,0,0.3,0,0.42-0.01c0.4,0.65,1.15,1.17,2.47,1.17c1.25,0,2.45-0.42,3.48-1.25v-1.06
			C30.75,24.26,29.58,25.01,28.05,25.01L28.05,25.01z M17.56,17.72c0.18,0,0.27,0.13,0.27,0.49c0,0.79-0.65,2.78-2.22,4.32
			C16.17,19.23,17.06,17.72,17.56,17.72L17.56,17.72z M24.73,17.72c0.21,0,0.29,0.19,0.29,0.47c0,1.03-1.12,3.01-2.51,4.76
			C23.32,19.07,24.26,17.72,24.73,17.72L24.73,17.72z M22.21,29.11c-0.36,0-0.49-0.39-0.49-1.01c0-1.07,0.28-2.74,0.48-3.69
			l0.13-0.13c0.42,0.76,0.69,1.87,0.69,2.93C23.02,28.01,22.84,29.11,22.21,29.11z M26.27,23.39c0-0.99,0.6-1.96,1.59-1.96
			c0.42,0,0.67,0.23,0.67,0.63c0,0.63-0.73,1.43-2.22,1.71C26.29,23.67,26.27,23.56,26.27,23.39z"/>
	</g>
</g>
</svg>
