<?xml version="1.0" encoding="utf-8"?>
<!-- Generator: Adobe Illustrator 26.0.1, SVG Export Plug-In . SVG Version: 6.00 Build 0)  -->
<svg version="1.1" id="Layer_1" xmlns="http://www.w3.org/2000/svg" xmlns:xlink="http://www.w3.org/1999/xlink" x="0px" y="0px"
	 viewBox="0 0 43 32" style="enable-background:new 0 0 43 32;" xml:space="preserve">
<style type="text/css">
	.st0{fill:#BA0C2F;}
	.st1{fill:#838271;}
	.st2{fill:#FFFFFF;}
</style>
<g>
	<g>
		<path class="st0" d="M39.93,15.27c-0.82,0-1.33,0.82-1.33,1.64c0,0.13,0.01,0.22,0.03,0.31c1.25-0.24,1.86-0.91,1.86-1.43
			C40.49,15.45,40.28,15.27,39.93,15.27z"/>
		<path class="st0" d="M28.83,16.87c0.05-0.76,0.19-1.51,0.34-2.11c0.43-1.84,1.14-3.25,2.16-3.25c0.7,0,0.97,0.49,0.97,1.07
			c0.01,1.53-1.22,3.39-2.7,4.56c-0.02,0.73,0.22,1.07,0.64,1.07c0.77,0,1.54-0.79,2.21-2.38c0.09-0.22,0.18-0.46,0.27-0.7
			c0.13-0.34,0.82-0.14,0.73,0.19c-0.21,0.71-0.55,1.65-0.55,2.27c0,0.41,0.21,0.59,0.52,0.58c0.43-0.01,0.78-0.31,1.03-0.61
			c0,0,0.17-0.88,0.22-1.12c0.73-3.44,1.56-4.93,2.65-4.93c0.65,0,0.99,0.4,0.99,1.05c0,1.19-0.82,2.56-2.4,4.45
			c0.49,0.17,1.03,0.3,1.72,0.3h0.17c-0.01-0.1-0.03-0.27-0.03-0.41c0-1.33,0.96-2.29,2.14-2.29c0.77,0,1.37,0.36,1.37,1.15
			c0,1-1.06,1.78-2.38,2.05c0.21,0.25,0.61,0.42,1.18,0.42c1.27,0,2.26-0.63,2.91-1.24v-9.1H26.8v10.04
			C27.55,17.66,28.25,17.29,28.83,16.87L28.83,16.87z M33.59,13.17c0.3,0,0.54,0.25,0.52,0.55c-0.01,0.3-0.27,0.55-0.58,0.55
			s-0.54-0.25-0.52-0.55S33.29,13.17,33.59,13.17z"/>
		<path class="st0" d="M37.31,12.15c-0.39,0-1.18,1.12-1.86,4.36c1.15-1.46,2.1-3.12,2.1-3.98C37.54,12.32,37.48,12.15,37.31,12.15
			L37.31,12.15z M40.09,18.94c-1.11,0-1.74-0.43-2.07-0.97c-0.11,0.01-0.24,0.01-0.35,0.01c-0.58,0-1.12-0.08-1.49-0.2
			c0.3,0.64,0.49,1.48,0.49,2.25c0,1.45-0.52,2.41-1.53,2.41c-0.71,0-1.12-0.52-1.13-1.59c-0.01-0.78,0.09-1.43,0.25-2.31
			c-0.24,0.2-0.58,0.34-0.99,0.35c-0.73,0-1.15-0.46-1.18-1.11c-0.57,0.77-1.26,1.14-1.98,1.14c-0.78,0-1.2-0.5-1.28-1.25
			c-0.56,0.36-1.24,0.73-2.02,1v5.43H43v-6.2C42.13,18.59,41.13,18.94,40.09,18.94L40.09,18.94z M31.31,12.15
			c-0.42,0-1.16,1.26-1.63,4.02c1.32-1.28,1.86-2.95,1.86-3.61C31.55,12.26,31.46,12.15,31.31,12.15L31.31,12.15z"/>
		<path class="st0" d="M35.2,17.74c-0.17,0.79-0.4,2.2-0.4,3.09c0,0.52,0.11,0.85,0.41,0.85c0.52,0,0.67-0.91,0.67-1.6
			c0-0.88-0.22-1.81-0.58-2.45L35.2,17.74z"/>
	</g>
	<path class="st1" d="M0.85,17.02c0,0.2,0.02,0.39,0.07,0.57c0.04,0.18,0.11,0.33,0.21,0.46c0.1,0.13,0.22,0.23,0.37,0.31
		c0.15,0.07,0.33,0.11,0.54,0.11c0.15,0,0.29-0.02,0.41-0.07c0.12-0.04,0.22-0.1,0.31-0.16c0.1-0.07,0.19-0.14,0.27-0.22
		c0.04,0.05,0.1,0.13,0.17,0.23c0.07,0.1,0.1,0.2,0.1,0.29c0,0.03-0.01,0.06-0.02,0.09c-0.03,0.05-0.07,0.11-0.15,0.18
		c-0.1,0.09-0.26,0.17-0.46,0.24c-0.2,0.07-0.45,0.1-0.74,0.1c-0.19,0-0.39-0.03-0.61-0.07c-0.22-0.05-0.43-0.16-0.62-0.31
		c-0.19-0.16-0.36-0.37-0.49-0.64C0.06,17.86,0,17.49,0,17.04c0-0.42,0.07-0.76,0.21-1.04c0.13-0.27,0.31-0.49,0.51-0.64
		s0.42-0.26,0.64-0.33c0.22-0.06,0.43-0.09,0.6-0.09c0.21,0,0.4,0.02,0.57,0.07c0.17,0.04,0.31,0.1,0.43,0.17
		c0.11,0.07,0.2,0.13,0.25,0.2c0.06,0.07,0.08,0.14,0.08,0.22c0,0.14-0.1,0.34-0.23,0.52c-0.09-0.1-0.23-0.22-0.41-0.32
		c-0.18-0.1-0.38-0.16-0.61-0.16c-0.22,0-0.4,0.04-0.55,0.1c-0.15,0.07-0.28,0.17-0.37,0.3c-0.1,0.13-0.17,0.28-0.22,0.45
		C0.87,16.64,0.85,16.82,0.85,17.02L0.85,17.02z M7.45,18.94c-0.06-0.08-0.1-0.21-0.13-0.37c-0.03-0.17-0.04-0.42-0.04-0.73v-1.41
		c0-0.25-0.02-0.46-0.07-0.66c-0.05-0.19-0.13-0.34-0.25-0.48C6.84,15.16,6.67,15.06,6.48,15c-0.19-0.06-0.45-0.1-0.74-0.1
		c-0.17,0-0.35,0.01-0.53,0.04c-0.18,0.03-0.34,0.07-0.49,0.12c-0.15,0.05-0.27,0.11-0.37,0.18c-0.09,0.07-0.14,0.14-0.14,0.22
		c0,0.05,0.01,0.13,0.05,0.23s0.08,0.19,0.14,0.28c0.18-0.13,0.36-0.22,0.55-0.29c0.19-0.07,0.42-0.11,0.69-0.11
		c0.33,0,0.55,0.06,0.67,0.19c0.12,0.13,0.17,0.31,0.17,0.55v0.13c-0.05-0.01-0.11-0.01-0.18-0.01H6.11
		c-0.21,0.01-0.44,0.03-0.69,0.07c-0.25,0.04-0.49,0.11-0.7,0.22c-0.22,0.11-0.4,0.25-0.55,0.44S3.93,17.6,3.93,17.9
		c0,0.24,0.04,0.44,0.12,0.6c0.07,0.16,0.19,0.28,0.31,0.37c0.13,0.09,0.27,0.16,0.42,0.19c0.16,0.04,0.31,0.05,0.46,0.05
		c0.31,0,0.57-0.04,0.76-0.15c0.19-0.1,0.36-0.22,0.49-0.36c0.02,0.16,0.09,0.28,0.22,0.34c0.12,0.07,0.26,0.1,0.43,0.1
		c0.05,0,0.1,0,0.15-0.01c0.05-0.01,0.09-0.01,0.12-0.02c0.03-0.01,0.05-0.03,0.05-0.06C7.46,18.96,7.46,18.95,7.45,18.94
		L7.45,18.94z M6.47,17.87c0,0.07-0.03,0.13-0.08,0.21c-0.06,0.07-0.13,0.13-0.23,0.19s-0.21,0.11-0.33,0.15
		c-0.13,0.04-0.25,0.06-0.4,0.06c-0.26,0-0.44-0.07-0.54-0.19c-0.1-0.13-0.14-0.27-0.14-0.44c0-0.18,0.04-0.32,0.13-0.43
		c0.09-0.1,0.21-0.19,0.35-0.25c0.14-0.06,0.31-0.1,0.48-0.13c0.18-0.02,0.35-0.03,0.52-0.03h0.23V17.87z M11.81,19.04h-0.83v-2.3
		c0-0.16-0.01-0.31-0.01-0.44c-0.01-0.13-0.04-0.25-0.09-0.35c-0.04-0.1-0.13-0.17-0.23-0.22c-0.1-0.05-0.25-0.08-0.45-0.08
		c-0.27,0-0.51,0.05-0.7,0.18C9.29,15.94,9.2,16.1,9.2,16.29v2.74H8.36V15c0.01,0,0.03,0,0.04-0.01h0.12c0.15,0,0.28,0.04,0.4,0.1
		c0.12,0.07,0.19,0.19,0.22,0.35c0.13-0.13,0.31-0.26,0.53-0.37s0.49-0.16,0.79-0.16c0.39,0,0.68,0.08,0.88,0.26
		c0.2,0.17,0.34,0.39,0.4,0.64c0.03,0.11,0.04,0.24,0.05,0.38c0.01,0.14,0.01,0.28,0.01,0.41L11.81,19.04z M16.16,18.94
		c-0.06-0.08-0.1-0.21-0.13-0.37c-0.03-0.17-0.04-0.42-0.04-0.73v-1.41c0-0.25-0.02-0.46-0.07-0.66c-0.05-0.19-0.13-0.34-0.26-0.48
		c-0.12-0.13-0.28-0.22-0.48-0.28c-0.19-0.06-0.45-0.1-0.74-0.1c-0.17,0-0.35,0.01-0.53,0.04c-0.18,0.03-0.34,0.07-0.49,0.12
		c-0.15,0.05-0.27,0.11-0.37,0.18c-0.09,0.07-0.14,0.14-0.14,0.22c0,0.05,0.01,0.13,0.05,0.23c0.04,0.1,0.08,0.19,0.14,0.28
		c0.18-0.13,0.36-0.22,0.55-0.29s0.42-0.11,0.69-0.11c0.33,0,0.55,0.06,0.67,0.19c0.11,0.13,0.17,0.31,0.17,0.55v0.13
		c-0.05-0.01-0.11-0.01-0.18-0.01h-0.18c-0.21,0.01-0.44,0.03-0.69,0.07c-0.25,0.04-0.49,0.11-0.71,0.22
		c-0.22,0.11-0.4,0.25-0.55,0.44c-0.15,0.19-0.22,0.43-0.22,0.72c0,0.24,0.04,0.44,0.12,0.6s0.19,0.28,0.31,0.37
		c0.13,0.09,0.26,0.16,0.42,0.19c0.16,0.03,0.31,0.05,0.46,0.05c0.31,0,0.57-0.04,0.76-0.15s0.36-0.22,0.49-0.36
		c0.02,0.16,0.09,0.28,0.22,0.34c0.13,0.06,0.26,0.1,0.43,0.1c0.05,0,0.1,0,0.15-0.01s0.09-0.01,0.12-0.02
		c0.03-0.01,0.05-0.03,0.05-0.06C16.17,18.96,16.17,18.95,16.16,18.94L16.16,18.94z M15.19,17.87c0,0.07-0.03,0.13-0.08,0.21
		c-0.06,0.07-0.13,0.13-0.23,0.19s-0.21,0.11-0.34,0.15s-0.26,0.06-0.4,0.06c-0.26,0-0.44-0.07-0.54-0.19s-0.14-0.27-0.14-0.44
		c0-0.18,0.04-0.32,0.13-0.43s0.21-0.19,0.35-0.25c0.14-0.06,0.31-0.1,0.48-0.13c0.18-0.02,0.35-0.03,0.52-0.03h0.23L15.19,17.87z
		 M20.64,18.94c-0.06-0.08-0.1-0.21-0.13-0.37c-0.03-0.17-0.04-0.42-0.04-0.73v-4.16c0-0.14-0.01-0.26-0.05-0.35
		c-0.04-0.09-0.07-0.16-0.13-0.22c-0.06-0.05-0.12-0.09-0.19-0.1c-0.07-0.01-0.15-0.03-0.22-0.03h-0.13c-0.04,0-0.08,0.01-0.1,0.01
		v2.33c-0.09-0.08-0.22-0.17-0.41-0.25s-0.42-0.13-0.7-0.13c-0.22,0-0.42,0.04-0.62,0.13s-0.37,0.21-0.53,0.38
		c-0.15,0.17-0.27,0.39-0.37,0.67c-0.09,0.27-0.13,0.59-0.13,0.97c0,0.39,0.04,0.72,0.14,0.98c0.09,0.26,0.22,0.48,0.37,0.64
		s0.34,0.27,0.54,0.34c0.2,0.07,0.41,0.1,0.62,0.1c0.3,0,0.55-0.06,0.73-0.18c0.19-0.12,0.33-0.23,0.41-0.34
		c0.02,0.16,0.09,0.28,0.22,0.34c0.13,0.06,0.26,0.1,0.43,0.1c0.05,0,0.1,0,0.15-0.01s0.09-0.01,0.12-0.02
		c0.03-0.01,0.05-0.03,0.05-0.06C20.65,18.96,20.65,18.95,20.64,18.94L20.64,18.94z M19.64,17.93c0,0.07-0.02,0.13-0.07,0.19
		c-0.04,0.06-0.1,0.12-0.18,0.17c-0.08,0.05-0.17,0.09-0.28,0.12c-0.11,0.03-0.22,0.05-0.35,0.05c-0.19,0-0.35-0.04-0.48-0.11
		c-0.13-0.07-0.23-0.18-0.31-0.31s-0.13-0.29-0.16-0.47s-0.04-0.37-0.04-0.59c0-0.46,0.09-0.81,0.26-1.04s0.41-0.35,0.71-0.35
		c0.13,0,0.24,0.01,0.34,0.04c0.1,0.03,0.19,0.07,0.27,0.11c0.07,0.04,0.14,0.09,0.19,0.14L19.64,16L19.64,17.93z M24.85,18.94
		c-0.06-0.08-0.1-0.21-0.13-0.37c-0.03-0.17-0.04-0.42-0.04-0.73v-1.41c0-0.25-0.02-0.46-0.07-0.66c-0.05-0.19-0.13-0.34-0.26-0.48
		c-0.12-0.13-0.28-0.22-0.48-0.28c-0.19-0.06-0.45-0.1-0.74-0.1c-0.17,0-0.35,0.01-0.53,0.04c-0.18,0.03-0.34,0.07-0.49,0.12
		s-0.27,0.11-0.37,0.18c-0.09,0.07-0.14,0.14-0.14,0.22c0,0.05,0.01,0.13,0.05,0.23s0.08,0.19,0.14,0.28
		c0.18-0.13,0.36-0.22,0.55-0.29s0.42-0.11,0.69-0.11c0.33,0,0.55,0.06,0.67,0.19c0.11,0.13,0.17,0.31,0.17,0.55v0.13
		c-0.05-0.01-0.11-0.01-0.18-0.01H23.5c-0.21,0.01-0.44,0.03-0.69,0.07c-0.25,0.04-0.49,0.11-0.71,0.22
		c-0.22,0.11-0.4,0.25-0.55,0.44s-0.22,0.43-0.22,0.72c0,0.24,0.04,0.44,0.12,0.6c0.08,0.16,0.19,0.28,0.31,0.37
		c0.13,0.09,0.26,0.16,0.42,0.19c0.16,0.03,0.31,0.05,0.46,0.05c0.31,0,0.57-0.04,0.76-0.15c0.19-0.1,0.36-0.22,0.49-0.36
		c0.02,0.16,0.09,0.28,0.22,0.34s0.26,0.1,0.43,0.1c0.05,0,0.1,0,0.15-0.01s0.09-0.01,0.12-0.02c0.03-0.01,0.05-0.03,0.05-0.06
		C24.86,18.96,24.85,18.95,24.85,18.94L24.85,18.94z M23.87,17.87c0,0.07-0.03,0.13-0.08,0.21c-0.06,0.07-0.13,0.13-0.23,0.19
		s-0.21,0.11-0.34,0.15c-0.13,0.04-0.26,0.06-0.4,0.06c-0.26,0-0.44-0.07-0.54-0.19s-0.14-0.27-0.14-0.44
		c0-0.18,0.04-0.32,0.13-0.43s0.21-0.19,0.35-0.25c0.14-0.06,0.31-0.1,0.48-0.13c0.18-0.02,0.35-0.03,0.52-0.03h0.23L23.87,17.87z"
		/>
	<g>
		<path class="st2" d="M33.53,14.27c0.3,0,0.56-0.25,0.58-0.55c0.01-0.3-0.22-0.55-0.52-0.55s-0.56,0.25-0.58,0.55
			C32.99,14.02,33.23,14.27,33.53,14.27z"/>
		<path class="st2" d="M40.08,18.25c-0.57,0-0.97-0.18-1.18-0.42c1.33-0.28,2.38-1.06,2.38-2.05c0-0.79-0.6-1.15-1.37-1.15
			c-1.18,0-2.14,0.95-2.14,2.29c0,0.14,0.01,0.31,0.03,0.41h-0.17c-0.69,0-1.24-0.13-1.72-0.3c1.58-1.89,2.4-3.26,2.4-4.45
			c0-0.65-0.33-1.05-0.99-1.05c-1.09,0-1.93,1.49-2.65,4.93c-0.05,0.25-0.22,1.12-0.22,1.12c-0.25,0.3-0.6,0.61-1.03,0.61
			c-0.31,0.01-0.52-0.16-0.52-0.58c0-0.62,0.34-1.56,0.55-2.27c0.1-0.33-0.59-0.52-0.73-0.19c-0.1,0.24-0.18,0.49-0.27,0.7
			c-0.67,1.59-1.43,2.38-2.21,2.38c-0.43,0-0.67-0.34-0.64-1.07c1.48-1.17,2.71-3.04,2.7-4.56c-0.01-0.58-0.27-1.07-0.97-1.07
			c-1.01,0-1.73,1.4-2.16,3.25c-0.14,0.6-0.28,1.36-0.34,2.11c-0.58,0.42-1.27,0.79-2.02,1.08v0.71c0.78-0.28,1.47-0.65,2.02-1
			c0.08,0.75,0.5,1.25,1.28,1.25c0.72,0,1.41-0.37,1.98-1.14c0.03,0.64,0.43,1.11,1.18,1.11c0.4,0,0.75-0.15,0.99-0.35
			c-0.16,0.88-0.26,1.53-0.25,2.31c0.01,1.07,0.42,1.59,1.13,1.59c1,0,1.52-0.96,1.53-2.41c0-0.76-0.19-1.6-0.49-2.25
			c0.38,0.13,0.91,0.2,1.49,0.2c0.12,0,0.25,0,0.35-0.01c0.34,0.55,0.96,0.97,2.07,0.97c1.05,0,2.05-0.35,2.91-1.04v-0.88
			C42.35,17.63,41.37,18.25,40.08,18.25L40.08,18.25z M31.31,12.15c0.15,0,0.22,0.1,0.22,0.41c0,0.66-0.54,2.32-1.86,3.61
			C30.15,13.41,30.9,12.15,31.31,12.15L31.31,12.15z M37.31,12.15c0.17,0,0.24,0.16,0.24,0.39c0,0.86-0.94,2.52-2.1,3.98
			C36.13,13.29,36.92,12.15,37.31,12.15L37.31,12.15z M35.2,21.68c-0.3,0-0.41-0.33-0.41-0.85c0-0.89,0.23-2.29,0.4-3.09l0.1-0.11
			c0.35,0.64,0.58,1.57,0.58,2.45C35.88,20.76,35.73,21.68,35.2,21.68z M38.6,16.9c0-0.82,0.5-1.64,1.33-1.64
			c0.35,0,0.56,0.19,0.56,0.52c0,0.52-0.61,1.19-1.86,1.43C38.62,17.13,38.6,17.03,38.6,16.9z"/>
	</g>
</g>
</svg>
