<?xml version="1.0" encoding="utf-8"?>
<!-- Generator: Adobe Illustrator 26.0.1, SVG Export Plug-In . SVG Version: 6.00 Build 0)  -->
<svg version="1.1" id="Layer_1" xmlns="http://www.w3.org/2000/svg" xmlns:xlink="http://www.w3.org/1999/xlink" x="0px" y="0px"
	 viewBox="0 0 43 32" style="enable-background:new 0 0 43 32;" xml:space="preserve">
<style type="text/css">
	.st0{fill:#00814D;}
</style>
<g id="logo_x5F_desjardins_x5F_vert">
</g>
<path class="st0" d="M12.38,5.27v10.53l9.12,5.26l9.12-5.26V5.27L21.5,0L12.38,5.27z M28.15,6.69v7.68l-6.65,3.84l-6.65-3.84V6.69
	l6.65-3.84L28.15,6.69z"/>
<g>
	<path class="st0" d="M2.37,23.3L0,23.3v6.87h2.4c2.15,0,3.54-1.34,3.54-3.42C5.94,24.69,4.5,23.3,2.37,23.3z M2.3,29.01H1.4v-4.53
		h0.97c1.26,0,2.18,0.96,2.18,2.27C4.55,28.08,3.63,29.01,2.3,29.01z"/>
	<path class="st0" d="M33.34,23.92c0,0.39-0.32,0.72-0.72,0.72c-0.4,0-0.72-0.32-0.72-0.72c0-0.4,0.32-0.72,0.72-0.72
		C33.02,23.2,33.34,23.52,33.34,23.92z M33.24,25.47h-1.23v4.71h1.23V25.47z"/>
	<path class="st0" d="M13.84,27.26c-0.53-0.2-0.69-0.3-0.69-0.52c0-0.21,0.17-0.34,0.45-0.34c0.47,0,0.82,0.25,1.13,0.53l0.71-0.76
		c-0.46-0.49-1.14-0.79-1.82-0.79c-0.99,0-1.69,0.58-1.69,1.4c0,0.94,0.73,1.31,1.44,1.54c0.09,0.03,0.16,0.05,0.24,0.08
		c0.4,0.13,0.63,0.2,0.63,0.44c0,0.14-0.07,0.37-0.57,0.37c-0.46,0-0.92-0.22-1.17-0.57l-0.72,0.77c0.5,0.57,1.11,0.84,1.88,0.84
		c1.12,0,1.82-0.55,1.82-1.42C15.46,27.95,14.85,27.65,13.84,27.26z"/>
	<path class="st0" d="M41.38,27.26c-0.53-0.2-0.69-0.3-0.69-0.52c0-0.21,0.17-0.34,0.45-0.34c0.47,0,0.82,0.25,1.13,0.53l0.71-0.76
		c-0.46-0.49-1.14-0.79-1.82-0.79c-0.99,0-1.69,0.58-1.69,1.4c0,0.94,0.73,1.31,1.44,1.54c0.09,0.03,0.16,0.05,0.24,0.08
		c0.41,0.13,0.63,0.2,0.63,0.44c0,0.14-0.07,0.37-0.57,0.37c-0.46,0-0.92-0.22-1.17-0.57l-0.72,0.77c0.5,0.57,1.11,0.84,1.88,0.84
		c1.12,0,1.82-0.55,1.82-1.42C43,27.95,42.39,27.65,41.38,27.26z"/>
	<path class="st0" d="M17.65,23.92c0,0.39-0.32,0.72-0.72,0.72s-0.72-0.32-0.72-0.72c0-0.4,0.32-0.72,0.72-0.72
		S17.65,23.52,17.65,23.92z M16.19,32c0.81,0,1.36-0.56,1.36-1.66v-4.87h-1.23v4.82c0,0.43-0.17,0.64-0.47,0.64
		c-0.14,0-0.28-0.04-0.41-0.12l-0.21,1.02C15.53,31.95,15.78,32,16.19,32L16.19,32z"/>
	<path class="st0" d="M21.54,25.73c-0.33-0.22-0.79-0.34-1.26-0.34c-0.77,0-1.41,0.28-1.79,0.79c0.08,0.09,0.61,0.65,0.72,0.76
		c0.19-0.27,0.38-0.41,0.65-0.49c0.1-0.03,0.21-0.05,0.33-0.05c0.15,0,0.3,0.03,0.41,0.07c0.29,0.12,0.46,0.37,0.46,0.66v0.31
		c-0.03-0.02-0.42-0.18-1.04-0.18c-0.99,0-1.74,0.65-1.74,1.52c0,0.86,0.64,1.48,1.53,1.48c0.55,0,0.9-0.24,1.2-0.49h0.05v0.41h1.17
		V27.1C22.22,26.49,21.99,26.03,21.54,25.73z M21.05,28.64c0,0.24-0.5,0.62-1.09,0.62c-0.37,0-0.61-0.24-0.61-0.54
		c0-0.2,0.11-0.56,0.74-0.56c0.47,0,0.95,0.15,0.95,0.15L21.05,28.64C21.05,28.64,21.05,28.64,21.05,28.64z"/>
	<path class="st0" d="M24.5,26.02h-0.03v-0.55h-1.25v4.71h1.25l0-2.12c0-0.85,0.42-1.43,1.48-1.43v-1.24
		C25.32,25.39,24.81,25.59,24.5,26.02z"/>
	<path class="st0" d="M29.78,29.76h0.06v0.41H31V23.3h-1.23v2.55h-0.05c-0.24-0.29-0.82-0.47-1.21-0.47c-1.49,0-2.3,1.25-2.3,2.43
		c0,0.9,0.39,1.47,0.71,1.78c0.42,0.41,1,0.65,1.59,0.65C28.79,30.25,29.24,30.17,29.78,29.76z M28.58,29.14
		c-0.68,0-1.2-0.58-1.2-1.32c0-0.75,0.53-1.33,1.2-1.33c0.75,0,1.21,0.69,1.21,1.33C29.79,28.55,29.25,29.14,28.58,29.14z"/>
	<path class="st0" d="M35.52,25.85h-0.05v-0.39h-1.23v4.71h1.23v-2.45c0-1.08,0.67-1.24,1.07-1.24c0.71,0,0.96,0.59,0.96,1.14v2.55
		h1.23v-2.54c0-1.41-0.75-2.25-2.02-2.25C35.85,25.39,35.52,25.84,35.52,25.85z"/>
	<path class="st0" d="M11.25,27.77c-0.01-1.41-0.96-2.38-2.31-2.38c-1.35,0-2.33,1.02-2.33,2.43c0,1.44,1,2.44,2.42,2.44
		c0.84,0,1.56-0.31,1.99-0.84c-0.09-0.1-0.64-0.67-0.73-0.77c-0.23,0.26-0.64,0.53-1.16,0.53c-0.62,0-1.09-0.35-1.25-0.96h3.34
		C11.24,28.12,11.25,27.92,11.25,27.77z M7.89,27.34c0.14-0.56,0.55-0.87,1.1-0.87c0.54,0,0.92,0.3,1.05,0.87H7.89z"/>
</g>
</svg>
