<?xml version="1.0" encoding="utf-8"?>
<!-- Generator: Adobe Illustrator 26.0.1, SVG Export Plug-In . SVG Version: 6.00 Build 0)  -->
<svg version="1.1" id="Layer_1" xmlns="http://www.w3.org/2000/svg" xmlns:xlink="http://www.w3.org/1999/xlink" x="0px" y="0px"
	 viewBox="0 0 43 32" style="enable-background:new 0 0 43 32;" xml:space="preserve">
<style type="text/css">
	.st0{fill:#006595;}
	.st1{fill:#B0BC22;}
</style>
<g>
	<path class="st0" d="M24.67,6.32c0.78,0,1.54,0.2,2.19,0.58c0.33,0.18,0.62,0.43,0.9,0.68c0.59,0.59,1,1.32,1.19,2.14
		c0.02-0.06,0.03-0.11,0.06-0.18c0.9-3.36-0.58-6.92-3.62-8.67c-0.59-0.33-1.22-0.59-1.89-0.78C23.22,0.03,22.92,0,22.65,0
		c-1.49,0-2.83,1-3.21,2.43c-0.4,1.44,0.24,2.95,1.55,3.69c0.26,0.15,0.52,0.26,0.79,0.33c0.27,0.08,0.58,0.11,0.85,0.11
		c0.32,0,0.61-0.03,0.9-0.12C23.92,6.39,24.29,6.32,24.67,6.32"/>
	<path class="st1" d="M18.85,5.49c-0.4-0.67-0.59-1.4-0.59-2.17c0-0.36,0.06-0.76,0.15-1.12c0.23-0.81,0.67-1.54,1.28-2.08
		c-0.06,0.02-0.12,0.03-0.18,0.06c-3.39,0.91-5.76,3.95-5.76,7.43c0,0.67,0.09,1.35,0.26,1.99c0.08,0.27,0.18,0.55,0.33,0.79
		c0.76,1.29,2.3,1.92,3.72,1.54c1.43-0.38,2.46-1.7,2.46-3.18c0-0.29-0.03-0.58-0.11-0.85c-0.08-0.27-0.18-0.53-0.33-0.79
		c-0.15-0.26-0.35-0.5-0.58-0.71C19.26,6.1,19.03,5.79,18.85,5.49"/>
	<path class="st1" d="M20.99,10.93c-0.4,0.67-0.94,1.2-1.61,1.58c-0.33,0.18-0.68,0.33-1.05,0.43c-0.81,0.23-1.66,0.2-2.48-0.06
		c0.03,0.03,0.09,0.09,0.14,0.14c2.48,2.45,6.32,2.96,9.38,1.22c0.59-0.33,1.12-0.76,1.61-1.23c0.2-0.2,0.4-0.43,0.53-0.68
		c0.76-1.29,0.53-2.92-0.53-3.97c-1.05-1.05-2.71-1.28-4-0.52c-0.26,0.15-0.49,0.32-0.68,0.52c-0.2,0.2-0.4,0.43-0.53,0.68
		c-0.15,0.26-0.27,0.55-0.35,0.85C21.32,10.26,21.17,10.6,20.99,10.93"/>
</g>
<g>
	<g>
		<polygon class="st0" points="6.31,16.34 10.56,16.34 10.56,17.45 7.6,17.45 7.6,19.33 10.01,19.33 10.01,20.45 7.6,20.45 
			7.6,22.36 10.73,22.36 10.73,23.48 6.31,23.48 		"/>
		<path class="st0" d="M11.51,18.35h1.22v0.59c0,0.19-0.01,0.34-0.01,0.34h0.01c0.24-0.5,0.88-1.06,1.68-1.06
			c0.79,0,1.29,0.36,1.49,1.05h0.01c0.27-0.56,0.95-1.05,1.74-1.05c1.06,0,1.68,0.6,1.68,1.95v3.29h-1.28v-3.05
			c0-0.57-0.1-1.03-0.7-1.03c-0.65,0-1.08,0.52-1.24,1.16c-0.06,0.22-0.06,0.42-0.06,0.66v2.26h-1.28v-3.05
			c0-0.56-0.09-1.03-0.7-1.03c-0.66,0-1.09,0.52-1.25,1.16c-0.06,0.19-0.06,0.42-0.06,0.65v2.26h-1.28v-5.11h0.01L11.51,18.35
			L11.51,18.35z"/>
		<path class="st0" d="M20.27,18.35h1.16v0.37c0,0.19-0.01,0.34-0.01,0.34h0.01c0,0,0.43-0.83,1.64-0.83c1.39,0,2.27,1.11,2.27,2.69
			c0,1.62-0.99,2.69-2.34,2.69c-1.01,0-1.47-0.7-1.47-0.7h-0.01c0,0,0.01,0.17,0.01,0.43v2.14h-1.28L20.27,18.35L20.27,18.35z
			 M22.77,22.52c0.7,0,1.29-0.57,1.29-1.59c0-0.98-0.52-1.61-1.28-1.61c-0.66,0-1.29,0.49-1.29,1.62
			C21.51,21.74,21.94,22.52,22.77,22.52"/>
		<path class="st0" d="M28.43,18.35h1.22v0.89c0,0.19-0.01,0.37-0.01,0.37h0.01c0.23-0.73,0.83-1.31,1.62-1.31
			c0.13,0,0.23,0.01,0.23,0.01v1.25c0,0-0.13-0.01-0.3-0.01c-0.55,0-1.15,0.32-1.39,1.08c-0.09,0.24-0.1,0.55-0.1,0.83v2.03h-1.28
			L28.43,18.35L28.43,18.35z"/>
		<path class="st0" d="M34.44,18.22c1.48,0,2.27,1.08,2.27,2.43c0,0.16-0.03,0.49-0.03,0.49h-3.53c0.09,0.89,0.76,1.36,1.54,1.36
			c0.82,0,1.48-0.56,1.48-0.56l0.49,0.91c0,0-0.79,0.73-2.05,0.73c-1.7,0-2.76-1.22-2.76-2.69C31.84,19.33,32.9,18.22,34.44,18.22
			 M35.41,20.28c-0.01-0.7-0.46-1.06-1.01-1.06c-0.65,0-1.09,0.4-1.22,1.06H35.41z"/>
		<rect x="26.15" y="18.35" class="st0" width="1.28" height="5.13"/>
		<path class="st0" d="M27.48,17.03c0,0.39-0.32,0.7-0.7,0.7c-0.39,0-0.7-0.32-0.7-0.7s0.32-0.7,0.7-0.7
			C27.17,16.33,27.48,16.64,27.48,17.03"/>
		<polygon class="st0" points="6.29,24.76 7.59,24.76 7.59,30.78 10.72,30.78 10.72,31.89 6.29,31.89 		"/>
		<rect x="11.58" y="26.76" class="st0" width="1.28" height="5.13"/>
		<path class="st0" d="M14.14,27.78H13.5v-1.01h0.63v-0.16c0-1.68,1.38-1.9,2.1-1.9c0.26,0,0.43,0.03,0.43,0.03v1.08
			c0,0-0.1-0.01-0.26-0.01c-0.37,0-0.98,0.09-0.98,0.83v0.11h1.09v1.01h-1.09v4.12h-1.26v-4.12h-0.03V27.78z"/>
		<path class="st0" d="M19.31,26.64c1.48,0,2.27,1.08,2.27,2.43c0,0.16-0.03,0.49-0.03,0.49h-3.52c0.09,0.89,0.76,1.36,1.54,1.36
			c0.82,0,1.48-0.56,1.48-0.56l0.49,0.91c0,0-0.79,0.73-2.05,0.73c-1.7,0-2.76-1.22-2.76-2.69C16.71,27.73,17.79,26.64,19.31,26.64
			 M20.3,28.7c-0.01-0.7-0.46-1.06-1.01-1.06c-0.65,0-1.09,0.4-1.22,1.06H20.3z"/>
		<path class="st0" d="M12.9,25.43c0,0.39-0.32,0.7-0.7,0.7s-0.7-0.32-0.7-0.7s0.32-0.7,0.7-0.7S12.9,25.05,12.9,25.43"/>
	</g>
</g>
</svg>
