<?xml version="1.0" encoding="utf-8"?>
<!-- Generator: Adobe Illustrator 26.0.1, SVG Export Plug-In . SVG Version: 6.00 Build 0)  -->
<svg version="1.1" id="Layer_1" xmlns="http://www.w3.org/2000/svg" xmlns:xlink="http://www.w3.org/1999/xlink" x="0px" y="0px"
	 viewBox="0 0 43 32" style="enable-background:new 0 0 43 32;" xml:space="preserve">
<style type="text/css">
	.st0{fill:#154D8C;}
</style>
<g>
	<path class="st0" d="M22.37,20.01c-0.49,0.2-4.83,1.21-7.57-0.15c-0.12-0.06-0.3-0.21-0.36-0.31h8.71
		C23.15,19.55,22.83,19.82,22.37,20.01"/>
	<path class="st0" d="M18.22,21.31c3.25,0.04,4.98-0.97,7.57-1.32c0.64-0.09,1.71-0.2,2.35-0.11c0.07,0.01-0.36,0.34-0.43,0.37
		c-3.11,1.98-6.5,2.37-9.69,1.3c-0.02-0.01-0.68-0.21-0.65-0.24C17.4,21.28,18.16,21.31,18.22,21.31"/>
	<path class="st0" d="M20.85,7.42l1.14,11.24c0,0,0.02,0.1,0.14,0.1c0,0,1.04,0.02,0.97-0.05l-0.05-0.14
		c-0.68-1.48-0.65-3.69,1.48-5.03c0.08-0.05-0.02,0.16-0.03,0.18c-0.38,0.53-0.62,1.1-0.7,1.73c0.53-0.83,0.85-1.02,1.33-1.23
		c0.47-0.2,1.13-0.17,1.64,0.05c-0.96,0.2-2.07,0.75-2.16,1.71c0.3-0.45,0.74-0.63,0.88-0.69c0.36-0.15,0.78-0.13,1.15-0.03
		c0.51,0.14,1.23,0.77,0.85,1.81c-0.07-0.44-0.35-0.9-0.82-1.02c-0.6-0.16-1.12,0.23-1.22,0.85c-0.22,1.34,1.28,2.25,2.48,2.04
		c2.41-0.42,3.58-2.65,4.2-4.76c0.48-1.61,0.51-3.66,0.3-4.67c0,0-10.15-3.14-10.26-3.19l0.07,0.02c-0.07-0.02-0.07-0.18-0.07-0.18
		V4.24c0-0.11,0.11-0.11,0.11-0.11l6.32-1.46c0,0-0.04-0.06-0.1-0.12c-4.65-4.04-12.07-3.21-15.87,1.93
		c-2.46,3.33-3.07,7.81-0.89,11.87c0.64,1.19,1.31,1.91,1.9,2.24c0.41,0.23,1.52,0.15,2.03,0.09l1.89-11.25
		c-0.46,0-0.65,0.03-0.65-0.07V6.64c0,0-0.01-0.12,0.14-0.12h0.49c0,0,0.14,0.01,0.13-0.08V3.75c0,0,0.01-0.05-0.06-0.05l-0.74,0
		c-0.09-0.02,0-0.1,0-0.1l2.32-1.39l2.22,1.37c0,0,0.07,0.08-0.02,0.1h-1.19c0,0-0.04,0.01-0.04,0.1v2.6c0,0,0,0.11,0.15,0.11
		l1.26,0.01c0,0,0.1-0.03,0.1,0.15v0.68c0,0,0,0.08-0.09,0.08H20.85"/>
</g>
<g>
	<path class="st0" d="M0,29.76c0.76,0,0.75-0.11,0.75-0.53v-3.83c0-0.42,0.01-0.53-0.75-0.53v-0.27h4.26v1.38H3.84
		c-0.06-1-0.06-1.08-1.06-1.08H1.46v2.17h0.61c0.71,0,0.82-0.05,0.82-0.81h0.34v1.88H2.9c-0.09-0.61,0.12-0.81-0.82-0.81H1.46v2.36
		h1.4c0.81-0.02,0.87-0.16,0.98-1.26h0.42v1.6H0V29.76"/>
	<path class="st0" d="M7.24,28.68c-0.02,0.73-0.21,1.13-1.03,1.13c-0.88,0-0.96-0.87-0.96-1.55c0-0.7,0.05-1.67,0.98-1.67
		c0.61,0,0.98,0.26,1,0.88V28.68z M7.24,31.2c0,0.56-0.12,0.51-0.7,0.55V32c0.34-0.01,0.68-0.01,1.02-0.02
		c0.35,0.01,0.68,0.01,1.02,0.02v-0.25c-0.67,0-0.7-0.1-0.7-0.55v-4.9l-0.67,0.28C6.82,26.4,6.63,26.3,6.17,26.3
		c-1.22,0-1.63,0.84-1.63,1.97c0,0.97,0.4,1.84,1.48,1.84c0.46,0,0.89-0.09,1.22-0.43V31.2"/>
	<path class="st0" d="M11.17,29.58c-0.24,0.31-0.83,0.52-1.22,0.52c-0.71,0-1.18-0.21-1.18-0.99v-1.95c0-0.45-0.03-0.55-0.7-0.55
		v-0.24h1.34v2.32c0,0.62,0.05,1.07,0.79,1.07c0.91,0,0.96-0.61,0.96-1.34v-1.27c0-0.43-0.03-0.55-0.66-0.55v-0.24h1.3v2.86
		c0,0.45,0.03,0.55,0.7,0.55v0.25c-0.24-0.01-0.47-0.01-0.71-0.02c-0.21,0.01-0.42,0.01-0.64,0.02V29.58"/>
	<path class="st0" d="M14.03,29.24c0,0.45,0.03,0.55,0.7,0.55v0.25c-0.34-0.01-0.68-0.02-1.02-0.02c-0.35,0-0.68,0.01-1.02,0.02
		v-0.25c0.67,0,0.7-0.1,0.7-0.55v-2.06c0-0.51-0.07-0.51-0.7-0.56v-0.24h1.34V29.24z M13.23,25.01c0-0.29,0.16-0.52,0.44-0.52
		c0.27,0,0.44,0.23,0.44,0.52c0,0.29-0.17,0.52-0.44,0.52C13.4,25.53,13.23,25.3,13.23,25.01"/>
	<path class="st0" d="M16.09,26.67v2.26c0,0.38,0.02,0.86,0.52,0.86c0.13,0,0.25-0.03,0.38-0.08l0.13-0.06l0.1,0.22
		c-0.24,0.12-0.63,0.23-0.93,0.23c-0.81,0-0.84-0.56-0.84-1.21v-2.22h-0.61v-0.3h0.61v-1.06l0.64-0.27v1.33h0.89v0.3H16.09"/>
	<path class="st0" d="M19.43,28.2v0.75c0,0.61-0.18,0.85-0.86,0.85c-0.49,0-0.67-0.35-0.67-0.79c0-0.75,0.46-0.81,1.11-0.81H19.43z
		 M19.43,27.94c-0.86,0-2.21-0.17-2.21,1.05c0,0.85,0.46,1.1,1.26,1.1c0.36,0,0.71-0.12,0.98-0.37v0.31
		c0.2-0.01,0.41-0.01,0.61-0.02c0.24,0.01,0.46,0.01,0.62,0.02v-0.25c-0.56-0.03-0.62-0.06-0.62-0.55v-1.71
		c0-0.92-0.34-1.23-1.28-1.23c-0.57,0-1.3,0.13-1.39,0.83c-0.03,0.24,0.03,0.39,0.24,0.4c0.15,0,0.34-0.02,0.34-0.2
		c0-0.49,0.05-0.76,0.71-0.76c0.43,0,0.73,0.16,0.73,0.59V27.94"/>
	<path class="st0" d="M21.52,27.79c0-0.7,0.24-1.21,1.03-1.21c0.98,0,0.99,0.96,0.99,1.7c0,0.71-0.16,1.57-1.04,1.57
		c-0.92,0-0.98-0.63-0.98-1.39V27.79z M21.53,24.18h-1.34v0.25c0.64,0.02,0.7,0.06,0.7,0.56v5.12l0.66-0.26
		c0.34,0.24,0.78,0.26,1.18,0.26c1.22,0,1.51-1,1.51-2.02c0-1.15-0.36-1.79-1.58-1.79c-0.42,0-0.83,0.14-1.12,0.44V24.18"/>
	<path class="st0" d="M24.85,24.97c0-0.45-0.04-0.54-0.7-0.54v-0.25h1.34v5.06c0,0.45,0.03,0.55,0.7,0.55v0.25
		c-0.34-0.01-0.68-0.02-1.02-0.02c-0.35,0-0.68,0.01-1.02,0.02v-0.25c0.66,0,0.7-0.09,0.7-0.54V24.97"/>
	<path class="st0" d="M26.73,27.94c-0.02-0.68,0.12-1.4,0.9-1.4s0.93,0.7,0.9,1.4H26.73z M29.25,28.21
		c0.05-1.14-0.33-1.91-1.53-1.91c-1.07,0-1.69,0.61-1.69,1.69c0,1.19,0.27,2.11,1.6,2.11c0.82,0,1.43-0.34,1.55-1.19
		c0.01-0.13-0.13-0.13-0.24-0.13c-0.14,0-0.27,0-0.27,0.13c-0.09,0.37-0.11,0.92-0.93,0.92c-1,0-1-0.91-1-1.62H29.25"/>
	<path class="st0" d="M30.95,29.77c0.76,0,0.75-0.11,0.75-0.53v-3.84c0-0.42,0.01-0.53-0.75-0.53v-0.27
		c0.37,0.01,0.74,0.01,1.11,0.02c0.37-0.01,0.74-0.01,1.11-0.02v0.27c-0.75,0-0.75,0.1-0.75,0.53v4.31h1.39
		c0.81-0.02,0.87-0.16,0.98-1.27h0.42v1.59h-4.25V29.77"/>
	<path class="st0" d="M36.54,29.24c0,0.45,0.03,0.55,0.7,0.55v0.25c-0.34-0.01-0.68-0.02-1.02-0.02c-0.35,0-0.68,0.01-1.02,0.02
		v-0.25c0.67,0,0.7-0.1,0.7-0.55v-2.06c0-0.51-0.07-0.51-0.7-0.56v-0.24h1.34V29.24z M35.75,25.01c0-0.29,0.17-0.52,0.44-0.52
		c0.27,0,0.44,0.23,0.44,0.52c0,0.29-0.16,0.52-0.44,0.52C35.92,25.53,35.75,25.3,35.75,25.01"/>
	<path class="st0" d="M39.63,26.37v0.3h-0.95v2.57c0,0.47,0.06,0.54,0.75,0.54v0.25c-0.39-0.01-0.73-0.01-1.08-0.02
		c-0.34,0.01-0.68,0.01-1.02,0.02v-0.25c0.57-0.04,0.7,0.01,0.7-0.54v-2.57h-0.67v-0.3h0.67v-0.96c0-0.74,0.39-1.23,1.15-1.23
		c0.48,0,0.82,0.15,0.89,0.67c0,0.11,0.03,0.31-0.17,0.28h-0.28c-0.19,0.03-0.16-0.16-0.14-0.25c-0.01-0.02,0.04-0.47-0.35-0.46
		c-0.49,0.03-0.46,0.51-0.46,0.78v1.18H39.63"/>
	<path class="st0" d="M40.48,27.94c-0.02-0.68,0.12-1.4,0.9-1.4c0.79,0,0.93,0.7,0.9,1.4H40.48z M42.99,28.21
		c0.05-1.14-0.33-1.91-1.53-1.91c-1.07,0-1.69,0.61-1.69,1.69c0,1.19,0.27,2.11,1.6,2.11c0.82,0,1.43-0.34,1.55-1.19
		c0.01-0.13-0.13-0.13-0.24-0.13c-0.14,0-0.27,0-0.27,0.13c-0.09,0.37-0.11,0.92-0.93,0.92c-1,0-1-0.91-1-1.62H42.99"/>
</g>
</svg>
