<?xml version="1.0" encoding="utf-8"?>
<!-- Generator: Adobe Illustrator 26.0.1, SVG Export Plug-In . SVG Version: 6.00 Build 0)  -->
<svg version="1.1" id="Layer_1" xmlns="http://www.w3.org/2000/svg" xmlns:xlink="http://www.w3.org/1999/xlink" x="0px" y="0px"
	 viewBox="0 0 43 32" style="enable-background:new 0 0 43 32;" xml:space="preserve">
<style type="text/css">
	.st0{fill:#520A76;}
	.st1{fill:#646569;}
</style>
<g>
	<path class="st0" d="M32.89,0H10.11C9.02,0,8.13,0.9,8.13,1.99v8.31c0.06-0.02,0.12-0.04,0.18-0.06c0.06-0.02,0.12-0.04,0.18-0.06
		c12.69-4.08,21.26-2.72,25.99-1.07c0.06,0.02,0.12,0.04,0.18,0.06c0.06,0.02,0.12,0.04,0.18,0.06V1.97C34.87,0.88,33.98,0,32.89,0z
		 M13,8.13c-0.66,0.04-1.23-0.66-1.31-1.59c-0.08-0.93,0.38-1.71,1.03-1.77c0.66-0.04,1.23,0.66,1.31,1.59
		C14.11,7.3,13.65,8.09,13,8.13z M21.01,6.68c-0.93,0.06-1.77-0.91-1.85-2.15c-0.08-1.23,0.62-2.29,1.55-2.35
		c0.93-0.06,1.77,0.91,1.85,2.15C22.64,5.59,21.95,6.62,21.01,6.68z M29.66,7.12c-0.84-0.08-1.43-1.03-1.31-2.11
		c0.12-1.07,0.9-1.87,1.73-1.79c0.84,0.08,1.43,1.03,1.31,2.11C31.27,6.4,30.5,7.2,29.66,7.12z"/>
	<path class="st0" d="M34.52,10.26c-0.99-0.18-2.01-0.32-3.02-0.42c-0.14,1.55-0.58,6.13-0.68,7.38h-0.8c-0.1-1.71-0.08-3-0.28-4.61
		c-0.44,0-0.34,0-0.78,0c-0.18,0.76-0.32,1.73-0.74,4.61h-0.66c-0.06-1.13-0.3-6.26-0.38-7.68c-1.25-0.04-2.49-0.04-3.72-0.02
		c-0.18,1.97-0.58,6.7-0.62,7.7h-0.66c-0.26-1.91-0.36-3.32-0.58-4.69c-0.26,0-0.52,0.02-0.76,0.02c-0.16,1.47-0.24,2.78-0.46,4.67
		l-0.82,0.02c-0.1-1.07-0.62-5.59-0.84-7.48c-1.27,0.1-2.53,0.22-3.7,0.36c-0.04,1.65-0.14,6.28-0.14,7.12h-0.64
		c-0.16-1.21-0.38-3.82-0.6-4.32c-0.14,0-0.3,0.02-0.44,0.02c-0.12,0.42-0.22,2.8-0.26,4.3h-0.54c-0.08-0.86-0.72-5.43-0.88-6.68
		c-1.09,0.16-2.13,0.34-3.04,0.5c-0.06,0.02-0.12,0.02-0.18,0.04c-0.06,0.02-0.12,0.02-0.18,0.04v6.28c0,1.09,0.89,1.99,1.99,1.99
		h22.71c1.09,0,1.99-0.89,1.99-1.99v-7.06c-0.06-0.02-0.12-0.02-0.18-0.04C34.64,10.28,34.58,10.26,34.52,10.26"/>
</g>
<g>
	<g>
		<path class="st1" d="M5.5,30.66l-0.66-0.08C4.59,30.55,4.5,30.5,4.5,30.37c0-0.18,0.2-0.28,0.59-0.28c0.33,0,0.56,0.06,0.82,0.21
			l0.04,0.03l0.2-0.3l-0.04-0.03c-0.34-0.22-0.65-0.27-1.01-0.27c-0.61,0-1,0.25-1,0.65c0,0.34,0.23,0.54,0.69,0.59l0.67,0.08
			c0.32,0.03,0.36,0.15,0.36,0.27c0,0.3-0.45,0.33-0.64,0.33c-0.37,0-0.63-0.08-0.91-0.26l-0.05-0.03l-0.2,0.33l0.04,0.03
			C4.38,31.9,4.7,32,5.13,32c0.7,0,1.09-0.25,1.09-0.7C6.22,31.05,6.1,30.74,5.5,30.66z"/>
		<path class="st1" d="M13.22,30.89c0,0.48-0.25,0.74-0.7,0.74c-0.58,0-0.7-0.4-0.7-0.74v-1.11h-0.4v1.11c0,0.69,0.41,1.11,1.1,1.11
			c0.69,0,1.1-0.41,1.1-1.11v-1.11h-0.4V30.89z"/>
		<path class="st1" d="M0.95,29.77L0,31.94h0.43l0.14-0.34h1.48l0.14,0.34h0.42l-0.93-2.17H0.95z M0.73,31.23l0.47-1.09h0.24
			l0.45,1.09H0.73z"/>
		<path class="st1" d="M9.15,30.66l-0.66-0.08c-0.26-0.03-0.34-0.09-0.34-0.21c0-0.18,0.2-0.28,0.59-0.28
			c0.33,0,0.56,0.06,0.82,0.21l0.05,0.03l0.2-0.3l-0.05-0.03c-0.34-0.22-0.65-0.27-1.01-0.27c-0.61,0-1,0.25-1,0.65
			c0,0.34,0.23,0.54,0.69,0.59l0.67,0.08c0.32,0.03,0.35,0.15,0.35,0.27c0,0.3-0.45,0.33-0.64,0.33c-0.37,0-0.63-0.08-0.91-0.26
			l-0.05-0.03l-0.2,0.33l0.04,0.03C8.03,31.9,8.35,32,8.78,32c0.7,0,1.09-0.25,1.09-0.7C9.87,31.05,9.75,30.74,9.15,30.66z"/>
		<path class="st1" d="M27.99,30.1c0.33,0,0.56,0.11,0.74,0.34l0.03,0.04l0.33-0.19l-0.03-0.06c-0.23-0.33-0.59-0.51-1.05-0.51
			c-0.71,0-1.21,0.47-1.21,1.13C26.81,31.54,27.29,32,28,32c0.46,0,0.81-0.17,1.05-0.51l0.03-0.05l-0.33-0.19l-0.03,0.04
			c-0.18,0.24-0.41,0.34-0.74,0.34c-0.47,0-0.79-0.32-0.79-0.78C27.21,30.4,27.51,30.1,27.99,30.1z"/>
		<polygon class="st1" points="31.02,31.57 31.02,31.01 32.41,31.01 32.41,30.64 31.03,30.64 31.03,30.13 32.57,30.13 32.57,29.76 
			30.63,29.76 30.63,29.77 30.63,31.94 32.62,31.94 32.62,31.57 		"/>
		<path class="st1" d="M17.39,30.6c0-0.48-0.37-0.83-0.89-0.83h-1.26v2.17h0.4v-0.5h0.94l0.28,0.5h0.44l-0.34-0.61
			C17.23,31.19,17.39,30.93,17.39,30.6z M15.63,30.14h0.86c0.31,0,0.5,0.19,0.5,0.47c0,0.29-0.19,0.46-0.5,0.46h-0.86V30.14z"/>
		<path class="st1" d="M19.8,29.77l-0.95,2.17h0.43l0.14-0.34h1.48l0.14,0.34h0.42l-0.93-2.17H19.8z M19.58,31.23l0.47-1.09h0.24
			l0.45,1.09H19.58z"/>
		<polygon class="st1" points="24.84,31.37 23.41,29.77 23.01,29.77 23.01,31.94 23.4,31.94 23.4,30.34 24.82,31.94 25.23,31.94 
			25.23,29.77 24.84,29.77 		"/>
	</g>
	<path class="st0" d="M5.51,22.63H4.8c-0.15,0-0.27,0.12-0.27,0.27v1.81H1.46V22.9c0-0.14-0.12-0.27-0.27-0.27H0.49
		c-0.15,0-0.27,0.12-0.27,0.27v5c0,0.14,0.12,0.27,0.27,0.27H1.2c0.15,0,0.27-0.12,0.27-0.27v-2h3.06v2c0,0.14,0.12,0.27,0.27,0.27
		h0.72c0.15,0,0.27-0.12,0.27-0.27v-5C5.78,22.74,5.67,22.63,5.51,22.63"/>
	<path class="st0" d="M11.93,22.63h-0.72c-0.15,0-0.27,0.12-0.27,0.27v2.57c0,0.75-0.27,1.65-1.54,1.65c-1.03,0-1.55-0.56-1.55-1.65
		V22.9c0-0.14-0.12-0.27-0.27-0.27H6.87c-0.15,0-0.27,0.12-0.27,0.27v2.56c0,1.75,1.07,2.83,2.81,2.83s2.81-1.09,2.81-2.83V22.9
		C12.2,22.74,12.07,22.63,11.93,22.63"/>
	<path class="st0" d="M19.91,22.63h-1.16c-0.11,0-0.19,0.06-0.24,0.15l-1.91,3.78l-1.93-3.79c-0.05-0.09-0.14-0.14-0.24-0.14h-1.18
		c-0.15,0-0.27,0.12-0.27,0.27v5c0,0.14,0.12,0.27,0.27,0.27h0.7c0.15,0,0.27-0.12,0.27-0.27v-3.36l1.78,3.48
		c0.05,0.09,0.14,0.14,0.24,0.14h0.7c0.11,0,0.19-0.06,0.24-0.15l1.73-3.47v3.34c0,0.14,0.12,0.27,0.27,0.27h0.72
		c0.15,0,0.27-0.12,0.27-0.27v-5C20.18,22.74,20.06,22.63,19.91,22.63"/>
	<path class="st0" d="M25.21,22.79c-0.04-0.1-0.14-0.16-0.25-0.16h-1.65c-0.11,0-0.2,0.07-0.25,0.16l-2.19,5
		c-0.04,0.09-0.03,0.18,0.02,0.26c0.05,0.08,0.13,0.12,0.23,0.12h0.77c0.11,0,0.2-0.07,0.25-0.16l0.29-0.65h3.4l0.29,0.65
		c0.04,0.1,0.14,0.16,0.25,0.16h0.75c0.1,0,0.17-0.05,0.23-0.12c0.05-0.08,0.06-0.17,0.02-0.25L25.21,22.79z M22.92,26.16l1.01-2.36
		h0.38l0.98,2.36H22.92z"/>
	<path class="st0" d="M33.44,22.63h-0.7c-0.15,0-0.27,0.12-0.27,0.27v3.36l-3.18-3.54c-0.05-0.06-0.12-0.09-0.2-0.09h-0.79
		c-0.15,0-0.27,0.12-0.27,0.27v5c0,0.14,0.12,0.27,0.27,0.27h0.7c0.15,0,0.27-0.12,0.27-0.27v-3.37l3.17,3.55
		c0.05,0.06,0.12,0.09,0.2,0.09h0.79c0.15,0,0.27-0.12,0.27-0.27v-5C33.71,22.74,33.58,22.63,33.44,22.63"/>
	<path class="st0" d="M35.55,22.63h-0.71c-0.15,0-0.27,0.12-0.27,0.27v5c0,0.14,0.12,0.27,0.27,0.27h0.71
		c0.15,0,0.27-0.12,0.27-0.27v-5C35.82,22.74,35.7,22.63,35.55,22.63"/>
	<path class="st0" d="M40.84,22.79c-0.04-0.1-0.14-0.16-0.25-0.16h-1.65c-0.11,0-0.2,0.07-0.25,0.16l-2.19,5
		c-0.04,0.09-0.03,0.18,0.02,0.26c0.05,0.08,0.13,0.12,0.23,0.12h0.77c0.11,0,0.2-0.07,0.25-0.16l0.29-0.65h3.4l0.29,0.65
		c0.04,0.1,0.14,0.16,0.25,0.16h0.75c0.09,0,0.17-0.05,0.22-0.12c0.05-0.08,0.06-0.17,0.02-0.26L40.84,22.79z M38.56,26.16
		l1.01-2.36h0.38l0.98,2.36H38.56z"/>
</g>
</svg>
