<?xml version="1.0" encoding="utf-8"?>
<!-- Generator: Adobe Illustrator 26.0.1, SVG Export Plug-In . SVG Version: 6.00 Build 0)  -->
<svg version="1.1" id="Layer_1" xmlns="http://www.w3.org/2000/svg" xmlns:xlink="http://www.w3.org/1999/xlink" x="0px" y="0px"
	 viewBox="0 0 43 32" style="enable-background:new 0 0 43 32;" xml:space="preserve">
<style type="text/css">
	.st0{fill:#003DA5;}
	.st1{fill:#7C878E;}
</style>
<path class="st0" d="M5.01,9.33L3.3,20.72H0.01L1.72,9.33H5.01z M5.01,9.33"/>
<path class="st0" d="M5.82,6.35c0,1.11-0.9,2.01-2.01,2.01c-1.11,0-2.01-0.9-2.01-2.01c0-1.11,0.9-2.01,2.01-2.01
	C4.92,4.35,5.82,5.24,5.82,6.35L5.82,6.35z M5.82,6.35"/>
<path class="st0" d="M16.99,20.72h3.38L16.12,5.36h-2.98L4.31,20.72h3.4l2.33-4.06h5.83L16.99,20.72z M11.72,13.74l2.26-3.93
	l1.08,3.93L11.72,13.74z M11.72,13.74"/>
<g>
	<g>
		<path class="st1" d="M39.99,4.35c0.9,0,1.75,0.4,2.33,1.1c0.57,0.69,0.8,1.61,0.63,2.49l-1.36,9.16c0,0.03,0,0.06,0,0.09
			c0,0.13,0.05,0.26,0.15,0.36c0.1,0.1,0.22,0.15,0.36,0.15h0.5v2.01h-1.41c-0.53,0-1.05-0.21-1.42-0.58
			c-0.38-0.38-0.59-0.89-0.59-1.42v-5.34h-2.57c-0.12,0-0.23-0.01-0.34-0.02c-1.41-0.16-2.53-1.26-2.71-2.66
			c-0.04-0.32-0.03-0.64,0.03-0.96l0.66-4.37H39.99z M39.99,4.35"/>
		<path class="st1" d="M33.03,5.36h-4.28c-3.03,0-5.53,2.34-5.88,5.33l-1.5,10.03h2.59l1.12-4.06h8.39v4.06h2.47l1.12-7.35h-0.47
			c-0.15,0-0.31-0.01-0.46-0.02c-1.88-0.21-3.36-1.67-3.61-3.54c-0.05-0.38-0.04-0.76,0.01-1.14L33.03,5.36"/>
		<path class="st1" d="M27.56,20.72l1.27-3.05h-3l-0.85,3.05H27.56z M27.56,20.72"/>
	</g>
</g>
<path class="st0" d="M0,22.88h2.96v0.78h-2.1v0.82h1.85v0.78H0.85v1.5H0V22.88z M0,22.88"/>
<rect x="3.4" y="23.79" class="st0" width="0.84" height="2.97"/>
<path class="st0" d="M4.92,23.79h0.84v0.42c0.19-0.29,0.52-0.47,0.87-0.48c0.64,0,1.01,0.42,1.01,1.1v1.92H6.8v-1.66
	c0-0.4-0.19-0.6-0.51-0.6c-0.32,0-0.53,0.21-0.53,0.6v1.66H4.92V23.79z M4.92,23.79"/>
<path class="st0" d="M8.06,25.29v-0.01c0-0.99,0.65-1.54,1.35-1.54c0.36-0.01,0.71,0.16,0.93,0.44v-0.39h0.84v2.97h-0.85v-0.43
	c-0.21,0.31-0.56,0.49-0.93,0.48C8.72,26.82,8.06,26.28,8.06,25.29L8.06,25.29z M10.35,25.29v-0.01c0-0.49-0.33-0.82-0.72-0.82
	c-0.4,0-0.73,0.32-0.73,0.82v0.01c0,0.49,0.33,0.82,0.73,0.82C10.03,26.11,10.35,25.78,10.35,25.29L10.35,25.29z M10.35,25.29"/>
<path class="st0" d="M11.81,23.79h0.84v0.42c0.19-0.29,0.52-0.47,0.87-0.48c0.64,0,1.01,0.42,1.01,1.1v1.92h-0.84v-1.66
	c0-0.4-0.19-0.6-0.51-0.6c-0.32,0-0.53,0.21-0.53,0.6v1.66h-0.84V23.79z M11.81,23.79"/>
<path class="st0" d="M15,25.3v-0.01c-0.01-0.41,0.16-0.81,0.45-1.11c0.29-0.29,0.69-0.45,1.11-0.44c0.45-0.03,0.89,0.16,1.19,0.5
	l-0.52,0.56c-0.16-0.21-0.41-0.33-0.68-0.33c-0.2,0.01-0.4,0.1-0.53,0.25c-0.14,0.15-0.2,0.35-0.19,0.56v0.01
	c-0.02,0.21,0.05,0.42,0.2,0.57c0.14,0.16,0.34,0.25,0.55,0.25c0.27,0,0.52-0.12,0.69-0.32l0.49,0.5c-0.3,0.36-0.75,0.56-1.21,0.54
	c-0.41,0.01-0.81-0.15-1.1-0.44C15.16,26.1,15,25.71,15,25.3L15,25.3z M15,25.3"/>
<rect x="18.23" y="23.79" class="st0" width="0.84" height="2.97"/>
<path class="st0" d="M19.55,25.29v-0.01c0-0.99,0.65-1.54,1.35-1.54c0.36-0.01,0.71,0.16,0.93,0.44v-0.39h0.84v2.97h-0.84v-0.43
	c-0.21,0.31-0.56,0.49-0.93,0.48C20.21,26.82,19.55,26.28,19.55,25.29L19.55,25.29z M21.84,25.29v-0.01c0-0.49-0.33-0.82-0.72-0.82
	c-0.4,0-0.73,0.32-0.73,0.82v0.01c0,0.49,0.33,0.82,0.73,0.82C21.52,26.11,21.84,25.78,21.84,25.29L21.84,25.29z M21.84,25.29"/>
<rect x="23.33" y="22.72" class="st0" width="0.84" height="4.05"/>
<path class="st0" d="M26.32,24.84v-0.01c0-0.54,0.21-1.05,0.59-1.43c0.38-0.38,0.9-0.59,1.44-0.58c0.56-0.03,1.11,0.16,1.53,0.53
	L29.33,24c-0.27-0.26-0.64-0.4-1.01-0.39c-0.64,0.03-1.14,0.57-1.12,1.21v0.01c-0.02,0.32,0.1,0.64,0.32,0.87
	c0.22,0.23,0.53,0.36,0.85,0.36c0.29,0.01,0.57-0.07,0.8-0.23v-0.56h-0.86v-0.75H30v1.68c-0.46,0.4-1.05,0.62-1.66,0.62
	C27.15,26.83,26.32,25.98,26.32,24.84L26.32,24.84z M26.32,24.84"/>
<path class="st0" d="M30.63,23.79h0.84v0.6c0.17-0.41,0.45-0.68,0.95-0.65v0.88h-0.04c-0.56,0-0.9,0.34-0.9,1.05v1.1h-0.84
	L30.63,23.79z M30.63,23.79"/>
<path class="st0" d="M32.6,25.3v-0.01c0.03-0.87,0.74-1.56,1.6-1.56c0.87,0,1.58,0.68,1.61,1.55v0.01c-0.03,0.87-0.74,1.56-1.6,1.56
	C33.35,26.85,32.64,26.16,32.6,25.3L32.6,25.3z M34.99,25.3v-0.01c0.01-0.21-0.07-0.42-0.22-0.58c-0.15-0.15-0.35-0.24-0.56-0.24
	c-0.21,0-0.42,0.08-0.56,0.24c-0.15,0.15-0.22,0.36-0.21,0.57v0.01c-0.01,0.21,0.07,0.42,0.22,0.58c0.15,0.15,0.35,0.24,0.56,0.24
	c0.21,0,0.42-0.08,0.56-0.24C34.93,25.72,35,25.51,34.99,25.3L34.99,25.3z M34.99,25.3"/>
<path class="st0" d="M36.29,25.72v-1.92h0.84v1.66c0,0.4,0.19,0.6,0.51,0.6c0.32,0,0.53-0.21,0.53-0.6v-1.66h0.84v2.97h-0.84v-0.42
	c-0.19,0.29-0.52,0.47-0.87,0.48C36.66,26.82,36.29,26.4,36.29,25.72L36.29,25.72z M36.29,25.72"/>
<path class="st0" d="M39.65,23.79h0.84v0.43c0.21-0.31,0.56-0.49,0.93-0.48c0.69,0,1.35,0.54,1.35,1.54v0.01
	c0,0.99-0.65,1.54-1.35,1.54c-0.36,0.01-0.71-0.16-0.93-0.44v1.28h-0.84V23.79z M41.93,25.29v-0.01c0-0.49-0.33-0.82-0.73-0.82
	c-0.4,0-0.72,0.33-0.72,0.82v0.01c0,0.49,0.33,0.82,0.72,0.82C41.6,26.11,41.93,25.79,41.93,25.29L41.93,25.29z M41.93,25.29"/>
<path class="st0" d="M18.65,22.63c0.19,0,0.37,0.12,0.44,0.3c0.07,0.18,0.03,0.38-0.1,0.52c-0.14,0.14-0.34,0.18-0.52,0.1
	c-0.18-0.07-0.3-0.25-0.3-0.44c0-0.13,0.05-0.25,0.14-0.34C18.4,22.68,18.52,22.63,18.65,22.63L18.65,22.63z M18.65,22.63"/>
<path class="st0" d="M3.83,22.63c0.19,0,0.37,0.12,0.44,0.3c0.07,0.18,0.03,0.38-0.1,0.52c-0.14,0.14-0.34,0.18-0.52,0.1
	c-0.18-0.07-0.3-0.25-0.3-0.44c0-0.13,0.05-0.25,0.14-0.34C3.57,22.68,3.7,22.63,3.83,22.63L3.83,22.63z M3.83,22.63"/>
</svg>
