<?xml version="1.0" encoding="utf-8"?>
<!-- Generator: Adobe Illustrator 26.0.1, SVG Export Plug-In . SVG Version: 6.00 Build 0)  -->
<svg version="1.1" id="Layer_1" xmlns="http://www.w3.org/2000/svg" xmlns:xlink="http://www.w3.org/1999/xlink" x="0px" y="0px"
	 viewBox="0 0 43 32" style="enable-background:new 0 0 43 32;" xml:space="preserve">
<style type="text/css">
	.st0{fill:#10659D;}
	.st1{fill:#9D1F61;}
</style>
<g>
	<path class="st0" d="M3.79,25.86c0,0.11-0.05,0.16-0.16,0.16H1.25c-0.04,0-0.08-0.02-0.11-0.05c-0.03-0.03-0.05-0.07-0.05-0.11
		v-11.7c0-0.04,0.02-0.08,0.05-0.11c0.03-0.03,0.07-0.05,0.11-0.05h2.37c0.11,0,0.16,0.05,0.16,0.16V25.86z"/>
	<path class="st0" d="M5.23,14.22c-0.02-0.06-0.02-0.11,0.01-0.15c0.03-0.05,0.08-0.07,0.13-0.07h1.88c0.55,0,0.94,0.25,1.16,0.76
		l2.89,6.58l3.18-7.25c0.03-0.06,0.08-0.09,0.14-0.09h2.6c0.06,0,0.1,0.02,0.13,0.07c0.03,0.05,0.04,0.1,0.01,0.15l-5.04,11.47
		c-0.17,0.38-0.51,0.57-1.03,0.57c-0.52,0-0.86-0.19-1.03-0.57L5.23,14.22z"/>
	<path class="st0" d="M29.73,25.86c0,0.11-0.05,0.16-0.16,0.16h-0.64c-0.76,0-1.31-0.33-1.67-1c-1,0.86-2.19,1.29-3.57,1.29
		c-1.74,0-3.23-0.62-4.46-1.85c-1.23-1.23-1.85-2.72-1.85-4.46c0-1.74,0.62-3.23,1.85-4.46c1.23-1.23,2.72-1.85,4.46-1.85
		c1.38,0,2.57,0.43,3.57,1.29c0.36-0.67,0.92-1,1.67-1h0.64c0.11,0,0.16,0.05,0.16,0.16V25.86z M20.08,20.01
		c0,1,0.35,1.85,1.06,2.55c0.7,0.7,1.56,1.06,2.55,1.06c1,0,1.85-0.35,2.55-1.06c0.7-0.7,1.06-1.56,1.06-2.55s-0.35-1.85-1.06-2.55
		c-0.7-0.7-1.56-1.06-2.55-1.06c-1,0-1.85,0.35-2.55,1.06C20.43,18.16,20.08,19.01,20.08,20.01"/>
	<path class="st0" d="M34.45,25.86c0,0.11-0.05,0.16-0.16,0.16h-2.37c-0.11,0-0.16-0.05-0.16-0.16v-7.89c0-1.28,0.41-2.31,1.22-3.09
		c0.81-0.78,1.86-1.17,3.15-1.17c0.47,0,0.91,0.06,1.33,0.17c0.08,0.02,0.12,0.07,0.12,0.15v2.58c0,0.07-0.03,0.12-0.09,0.14
		c-0.06,0.03-0.11,0.02-0.17-0.02c-0.28-0.22-0.68-0.33-1.19-0.33c-0.58,0-1.01,0.14-1.29,0.41c-0.26,0.25-0.39,0.64-0.39,1.16
		V25.86z"/>
	<path class="st0" d="M41.91,25.86c0,0.11-0.05,0.16-0.16,0.16h-2.37c-0.04,0-0.08-0.02-0.11-0.05c-0.03-0.03-0.05-0.07-0.05-0.11
		v-11.7c0-0.04,0.02-0.08,0.05-0.11c0.03-0.03,0.07-0.05,0.11-0.05h2.37c0.11,0,0.16,0.05,0.16,0.16V25.86z"/>
	<path class="st1" d="M2.21,10.7c0-0.07,0.06-0.13,0.13-0.13l0.09,0c1.35,0,2.44-1.09,2.44-2.44c0-1.35-1.09-2.44-2.44-2.44
		c-0.12,0-0.25,0.01-0.37,0.03C0.9,5.9,0,6.91,0,8.13c0,1.95,1.15,3.64,2.8,4.42c0.01,0,0.02,0.01,0.03,0.01
		c0.06,0.02,0.12,0.04,0.18,0.04c0.26,0,0.47-0.21,0.47-0.47c0-0.15-0.07-0.28-0.18-0.37c-0.03-0.02-0.73-0.52-1.06-0.97
		c0,0,0,0,0-0.01C2.24,10.78,2.21,10.75,2.21,10.7"/>
	<path class="st1" d="M40.79,7.58c0,0.07-0.06,0.13-0.13,0.13l-0.09,0c-1.35,0-2.44,1.09-2.44,2.44s1.09,2.44,2.44,2.44
		c0.12,0,0.25-0.01,0.37-0.03C42.1,12.39,43,11.38,43,10.16c0-1.95-1.15-3.64-2.8-4.42c-0.01,0-0.02-0.01-0.03-0.01
		c-0.05-0.02-0.12-0.04-0.18-0.04c-0.26,0-0.47,0.21-0.47,0.47c0,0.15,0.07,0.28,0.18,0.37c0.03,0.02,0.73,0.52,1.06,0.97
		c0,0,0,0,0,0.01C40.76,7.51,40.79,7.54,40.79,7.58"/>
</g>
</svg>
