<?xml version="1.0" encoding="utf-8"?>
<!-- Generator: Adobe Illustrator 26.0.1, SVG Export Plug-In . SVG Version: 6.00 Build 0)  -->
<svg version="1.1" id="Layer_1" xmlns="http://www.w3.org/2000/svg" xmlns:xlink="http://www.w3.org/1999/xlink" x="0px" y="0px"
	 viewBox="0 0 43 32" style="enable-background:new 0 0 43 32;" xml:space="preserve">
<style type="text/css">
	.st0{fill:#016740;}
	.st1{fill:#FFFFFF;}
</style>
<g>
	<path class="st0" d="M1.78,25.58c0,0.04,0,0.09,0,0.13c0,1.56,0,3.12,0,4.69c0,0.2,0.02,0.39,0.09,0.58
		c0.07,0.19,0.21,0.32,0.41,0.38c0.15,0.05,0.31,0.06,0.48,0.07c0.08,0,0.15,0,0.24,0c0,0.12,0,0.23,0,0.35c-0.99,0-1.97,0-2.97,0
		c-0.03-0.11-0.02-0.22-0.01-0.34c0.06,0,0.13,0,0.19-0.01c0.15-0.01,0.3-0.01,0.44-0.04c0.28-0.06,0.46-0.24,0.52-0.52
		c0.03-0.15,0.06-0.31,0.06-0.46c0-1.58,0-3.15,0-4.73c0-0.15-0.02-0.3-0.05-0.45c-0.08-0.36-0.31-0.51-0.68-0.56
		C0.32,24.64,0.17,24.64,0,24.63c0-0.11,0-0.21,0-0.32c0.1-0.03,2.58-0.04,2.9-0.01c0.86,1.79,1.72,3.6,2.59,5.43
		c0.3-0.63,0.58-1.23,0.87-1.83c0.28-0.6,0.57-1.2,0.85-1.79c0.28-0.6,0.57-1.2,0.86-1.81c0.97,0,1.94,0,2.91,0
		c0,0.11,0,0.22,0,0.34c-0.07,0-0.13,0-0.19,0c-0.17,0.01-0.34,0.02-0.51,0.05c-0.27,0.05-0.45,0.22-0.51,0.49
		c-0.04,0.16-0.07,0.34-0.07,0.5c0,1.57,0,3.14,0,4.71c0,0.13,0.02,0.27,0.04,0.4c0.08,0.38,0.3,0.58,0.69,0.61
		c0.13,0.01,0.26,0.01,0.39,0.02c0.05,0,0.1,0,0.16,0.01c0,0.06,0.01,0.11,0.01,0.17c0,0.05,0,0.11,0,0.18
		c-0.35,0.02-0.69,0.01-1.02,0.01c-0.34,0-0.69,0-1.03,0c-0.34,0-0.68,0-1.02,0c-0.34,0-0.68,0-1.03,0c0-0.12,0-0.22,0-0.35
		c0.04,0,0.09-0.01,0.14-0.01c0.14-0.01,0.28,0,0.42-0.02c0.12-0.02,0.24-0.06,0.36-0.11c0.16-0.07,0.25-0.21,0.29-0.37
		c0.04-0.15,0.06-0.31,0.08-0.46c0.01-0.1,0-0.21,0-0.31c0-1.51,0-3.02,0-4.52c0-0.05,0-0.11,0-0.17c-0.07,0.01-0.07,0.06-0.09,0.1
		c-0.25,0.53-0.5,1.06-0.75,1.59c-0.57,1.21-1.13,2.41-1.7,3.62c-0.14,0.3-0.28,0.6-0.42,0.9c-0.04,0.08-0.08,0.1-0.17,0.11
		c-0.17,0.02-0.26-0.04-0.33-0.2c-0.64-1.36-1.3-2.71-1.95-4.07c-0.29-0.61-0.59-1.23-0.88-1.84c-0.02-0.04-0.04-0.07-0.06-0.1
		C1.8,25.58,1.79,25.58,1.78,25.58z"/>
	<path class="st0" d="M19.51,31.43c0,0.12,0,0.22,0,0.33c-0.11,0.03-2.69,0.03-2.82,0c0-0.1,0-0.21,0-0.33
		c0.05,0,0.09-0.01,0.13-0.01c0.34-0.01,0.5-0.16,0.53-0.49c0.01-0.14,0.02-0.28,0.02-0.41c0-0.68,0-1.35,0-2.03
		c0-0.21-0.01-0.42-0.02-0.63c-0.01-0.11-0.03-0.21-0.06-0.32c-0.06-0.2-0.21-0.31-0.42-0.31c-0.07,0-0.13,0-0.21,0
		c0-0.13,0-0.25,0-0.38c0.14-0.04,0.28-0.07,0.41-0.11c0.36-0.09,0.73-0.18,1.09-0.27c0.17-0.04,0.35-0.02,0.54-0.02
		c0,0.25,0,0.49,0,0.76c0.08-0.06,0.14-0.11,0.19-0.15c0.31-0.24,0.64-0.44,1.03-0.54c0.37-0.1,0.74-0.11,1.11,0.01
		c0.56,0.18,0.88,0.57,0.95,1.15c0.03,0.23,0.05,0.46,0.05,0.7c0.01,0.71,0,1.42,0,2.13c0,0.16,0.01,0.31,0.03,0.47
		c0.03,0.28,0.18,0.41,0.46,0.43c0.07,0.01,0.15,0.01,0.23,0.01c0,0.12,0,0.22,0,0.33c-0.1,0.03-2.54,0.04-2.74,0.01
		c0-0.11,0-0.22,0-0.33c0.03-0.01,0.06-0.01,0.09-0.01c0.04,0,0.09,0,0.13-0.01c0.25-0.02,0.38-0.15,0.43-0.39
		c0.02-0.11,0.03-0.23,0.03-0.35c0-0.72,0-1.44,0-2.16c0-0.2-0.02-0.39-0.05-0.59c-0.07-0.39-0.38-0.61-0.77-0.59
		c-0.33,0.02-0.64,0.13-0.92,0.31c-0.25,0.16-0.25,0.16-0.25,0.47c0,0.88,0,1.75,0,2.63c0,0.11,0.02,0.21,0.04,0.32
		c0.05,0.21,0.17,0.32,0.39,0.35c0.08,0.01,0.15,0.01,0.23,0.01C19.42,31.43,19.46,31.43,19.51,31.43z"/>
	<path class="st0" d="M22.85,27.03c0-0.11,0-0.21,0-0.32c0.09-0.03,1.72-0.04,1.89,0c0,0.05,0,0.1,0,0.15c0,1.06,0,2.11,0,3.17
		c0,0.14,0.01,0.29,0.03,0.43c0.04,0.41,0.37,0.63,0.7,0.66c0.18,0.02,0.36,0,0.53-0.08c0.21-0.1,0.41-0.21,0.62-0.32
		c0.08-0.04,0.11-0.11,0.11-0.21c0-0.93,0-1.85,0-2.78c0-0.1-0.01-0.2-0.03-0.29c-0.04-0.24-0.18-0.36-0.43-0.38
		c-0.08-0.01-0.16,0-0.24-0.01c-0.04,0-0.09,0-0.14,0c-0.04-0.12-0.01-0.23-0.02-0.34c0.11-0.03,1.94-0.04,2.21-0.01
		c0,0.05,0,0.1,0,0.15c0,1.14,0,2.27,0,3.41c0,0.15,0,0.3,0.01,0.46c0,0.07,0.02,0.15,0.05,0.22c0.04,0.13,0.14,0.21,0.28,0.21
		c0.08,0,0.15-0.01,0.23-0.02c0.05-0.01,0.09-0.02,0.15-0.03c0,0.12,0,0.24,0,0.37c-0.03,0.01-0.07,0.03-0.11,0.05
		c-0.48,0.16-0.96,0.31-1.44,0.47c-0.05,0.01-0.1,0.02-0.14,0.02c-0.12,0-0.24,0-0.37,0c0-0.25,0-0.49,0-0.75
		c-0.05,0.03-0.07,0.04-0.09,0.06c-0.26,0.21-0.54,0.39-0.86,0.52c-0.29,0.12-0.59,0.19-0.9,0.17c-0.6-0.04-1.06-0.31-1.32-0.86
		c-0.12-0.26-0.15-0.55-0.15-0.84c-0.01-0.82-0.01-1.64-0.01-2.46c0-0.12-0.01-0.24-0.03-0.36c-0.03-0.23-0.16-0.43-0.45-0.43
		C22.89,27.04,22.87,27.03,22.85,27.03z"/>
	<path class="st0" d="M16.37,30.76c0.07,0.1,0.12,0.17,0.17,0.26c-0.32,0.45-0.68,0.84-1.25,0.95c-0.18,0.04-0.36,0.03-0.54-0.03
		c-0.31-0.1-0.5-0.36-0.52-0.68c0-0.05,0-0.1,0-0.18c-0.04,0.02-0.07,0.03-0.08,0.05c-0.33,0.29-0.7,0.53-1.1,0.72
		c-0.31,0.15-0.63,0.18-0.97,0.1c-0.3-0.08-0.52-0.25-0.68-0.5c-0.29-0.47-0.34-1.29,0.14-1.8c0.18-0.2,0.41-0.34,0.65-0.47
		c0.39-0.2,0.8-0.34,1.21-0.48c0.23-0.08,0.47-0.15,0.7-0.23c0.04-0.01,0.08-0.03,0.13-0.05c-0.01-0.33,0.03-0.67-0.03-0.99
		c-0.05-0.28-0.2-0.43-0.48-0.49c-0.21-0.04-0.43-0.04-0.64,0.02c-0.31,0.08-0.45,0.3-0.42,0.62c0.01,0.1,0,0.22-0.02,0.32
		c-0.07,0.28-0.31,0.43-0.63,0.39c-0.28-0.03-0.47-0.24-0.49-0.51c-0.02-0.41,0.18-0.7,0.5-0.92c0.29-0.2,0.63-0.3,0.98-0.35
		c0.48-0.06,0.96-0.06,1.43,0.05c0.25,0.06,0.49,0.15,0.7,0.3c0.26,0.18,0.39,0.44,0.43,0.75c0.01,0.11,0.02,0.21,0.02,0.32
		c0,0.89,0,1.78,0,2.67c0,0.12,0.01,0.24,0.03,0.36c0.04,0.18,0.17,0.24,0.34,0.17c0.13-0.05,0.23-0.15,0.33-0.25
		C16.29,30.84,16.32,30.81,16.37,30.76z M14.23,28.9c-0.31,0.11-0.6,0.2-0.87,0.31c-0.16,0.07-0.32,0.15-0.47,0.25
		c-0.36,0.24-0.49,0.57-0.4,0.97c0.08,0.37,0.45,0.78,1.01,0.55c0.23-0.1,0.45-0.22,0.64-0.38c0.07-0.06,0.1-0.12,0.1-0.22
		c0-0.44,0-0.88,0-1.31C14.23,29.01,14.23,28.97,14.23,28.9z"/>
	<path class="st0" d="M42.93,28.8c-1.13,0-2.25,0-3.38,0c0,0.05-0.01,0.09-0.01,0.13c0.06,0.51,0.21,0.98,0.56,1.37
		c0.4,0.46,1.03,0.63,1.61,0.44c0.39-0.13,0.69-0.37,0.93-0.7c0.03-0.04,0.06-0.09,0.1-0.14c0.09,0.05,0.17,0.1,0.26,0.15
		c-0.01,0.05-0.02,0.1-0.04,0.14c-0.23,0.61-0.6,1.11-1.14,1.47c-0.83,0.55-1.99,0.42-2.7-0.28c-0.39-0.38-0.61-0.85-0.72-1.37
		c-0.13-0.59-0.12-1.19,0.05-1.78c0.16-0.56,0.46-1.04,0.95-1.37c0.38-0.26,0.8-0.38,1.26-0.39c0.31-0.01,0.62,0.02,0.91,0.12
		c0.67,0.24,1.09,0.71,1.28,1.39c0.06,0.23,0.08,0.47,0.09,0.7C42.94,28.72,42.93,28.75,42.93,28.8z M41.47,28.23
		c0.01-0.37-0.04-0.7-0.26-0.99c-0.11-0.14-0.26-0.23-0.43-0.27c-0.36-0.08-0.75,0.08-0.98,0.41c-0.15,0.23-0.23,0.48-0.26,0.75
		c0,0.03,0,0.06,0,0.1C40.18,28.23,40.82,28.23,41.47,28.23z"/>
	<path class="st0" d="M38.07,31.43c0,0.09,0,0.16,0,0.24c0,0.03,0,0.06,0,0.09c-0.1,0.03-2.94,0.04-3.15,0.01
		c-0.03-0.11-0.02-0.21-0.01-0.34c0.05,0,0.09-0.01,0.13-0.01c0.08,0,0.16,0,0.24-0.01c0.25-0.03,0.39-0.15,0.43-0.4
		c0.01-0.09,0.02-0.19,0.02-0.28c0-1.08,0-2.17,0-3.25c0-0.05,0-0.1,0-0.16c-0.28-0.01-0.54,0-0.83-0.01
		c-0.03-0.21-0.01-0.41-0.01-0.63c0.28,0,0.54,0,0.82,0c0.01-0.11,0.01-0.2,0.02-0.29c0.03-0.63,0.26-1.17,0.73-1.61
		c0.31-0.28,0.67-0.46,1.07-0.56c0.35-0.08,0.7-0.11,1.05-0.05c0.24,0.04,0.46,0.13,0.64,0.31c0.24,0.25,0.21,0.64,0.1,0.82
		c-0.17,0.28-0.68,0.42-0.98,0.1c-0.1-0.11-0.18-0.23-0.27-0.35c-0.04-0.05-0.07-0.1-0.1-0.14c-0.23-0.27-0.63-0.17-0.77,0.09
		c-0.08,0.14-0.12,0.29-0.12,0.45c-0.01,0.4,0,0.8,0,1.21c0.32,0.02,0.64,0,0.97,0.01c0,0.21,0,0.41,0,0.62c-0.33,0-0.65,0-0.97,0
		c0,0.05-0.01,0.09-0.01,0.13c0,1.1,0,2.2,0,3.3c0,0.12,0.02,0.24,0.05,0.36c0.04,0.18,0.17,0.28,0.35,0.3
		c0.14,0.02,0.28,0.01,0.42,0.02C37.94,31.43,38,31.43,38.07,31.43z"/>
	<path class="st0" d="M28.91,24.79c-0.02-0.12-0.04-0.23-0.06-0.36c0.21-0.04,0.4-0.07,0.59-0.11c0.3-0.05,0.59-0.11,0.89-0.15
		c0.18-0.02,0.36-0.02,0.56-0.03c0,0.08,0.01,0.14,0.01,0.2c0,1.32,0,2.65,0,3.97c0,0.77,0,1.54,0,2.31c0,0.13,0.01,0.27,0.04,0.4
		c0.05,0.27,0.18,0.37,0.45,0.39c0.04,0,0.07,0.01,0.12,0.01c0,0.11,0,0.22,0,0.33c-0.1,0.03-2.44,0.03-2.6,0c0-0.11,0-0.21,0-0.33
		c0.06,0,0.11-0.01,0.17-0.01c0.28-0.03,0.41-0.14,0.45-0.42c0.02-0.1,0.03-0.2,0.03-0.31c0-1.67,0-3.35,0-5.02
		c0-0.19-0.02-0.38-0.06-0.56c-0.04-0.2-0.19-0.31-0.4-0.32C29.04,24.79,28.99,24.79,28.91,24.79z"/>
	<path class="st0" d="M34.6,31.44c0,0.12,0,0.22,0,0.34c-0.96,0-1.9,0-2.86,0c0-0.11,0-0.22,0-0.34c0.05,0,0.09-0.01,0.14-0.01
		c0.08,0,0.16,0,0.24-0.01c0.19-0.03,0.32-0.14,0.36-0.33c0.03-0.15,0.05-0.31,0.05-0.46c0-0.8,0.01-1.59,0-2.39
		c0-0.21-0.03-0.42-0.05-0.63c0-0.04-0.02-0.09-0.04-0.13c-0.09-0.22-0.26-0.33-0.5-0.29c-0.05,0.01-0.1,0.02-0.16,0.03
		c-0.03-0.11-0.06-0.23-0.09-0.35c0.15-0.04,0.3-0.07,0.44-0.11c0.38-0.09,0.77-0.17,1.15-0.26c0.19-0.04,0.37-0.02,0.57-0.02
		c0,0.06,0,0.12,0,0.17c0,1.3,0,2.6,0,3.91c0,0.14,0.01,0.29,0.03,0.43c0.04,0.3,0.19,0.43,0.49,0.45c0.04,0,0.07,0,0.11,0
		C34.53,31.43,34.56,31.43,34.6,31.44z"/>
	<path class="st0" d="M34.04,24.95c0,0.45-0.35,0.8-0.79,0.8c-0.45,0-0.8-0.35-0.8-0.8c0-0.45,0.34-0.8,0.79-0.8
		C33.7,24.16,34.04,24.5,34.04,24.95z"/>
</g>
<g>
	<rect x="10.44" class="st0" width="22.13" height="22.13"/>
	<polygon class="st1" points="26.73,7.77 30.05,4.57 30.05,17.57 26.73,20.78 	"/>
	<polygon class="st1" points="21.22,7.77 24.54,4.57 24.54,17.57 21.22,20.78 	"/>
	<polygon class="st1" points="15.71,7.77 19.03,4.57 19.03,17.57 15.71,20.78 	"/>
</g>
</svg>
