<?xml version="1.0" encoding="utf-8"?>
<!-- Generator: Adobe Illustrator 26.0.1, SVG Export Plug-In . SVG Version: 6.00 Build 0)  -->
<svg version="1.1" id="Layer_1" xmlns="http://www.w3.org/2000/svg" xmlns:xlink="http://www.w3.org/1999/xlink" x="0px" y="0px"
	 viewBox="0 0 43 32" style="enable-background:new 0 0 43 32;" xml:space="preserve">
<style type="text/css">
	.st0{fill:#0051A5;}
	.st1{fill:#FEDF01;}
	.st2{fill:#FFFFFF;}
</style>
<g id="Layer_2_2_">
	<g>
		<g>
			<g>
				<g>
					<g>
						<g>
							<path class="st0" d="M30.74,21.32c0,0.8-0.33,1.27-0.97,1.52c-2.5,0.96-5.46,1.46-8.27,1.46c-2.81,0-5.77-0.5-8.27-1.46
								c-0.64-0.25-0.97-0.71-0.97-1.52V0h18.48V21.32z"/>
							<g>
								<g>
									<path class="st1" d="M17.22,12.99c-2.56-1.6-3.4-2.3-3.48-3.35c-0.01-0.21,0.04-0.57,0.13-0.83l-0.24-0.16
										c-0.19,0.31-0.32,0.71-0.32,1.08c0,0.61,0.19,1.06,0.43,1.43c0.36,0.55,0.74,0.9,1.67,1.6c1,0.75,1.69,1.63,2.08,2.55h0.14
										v-1.04c1.36,0.77,2.55,1.5,3.14,2.79h0.14C20.69,15.72,19.93,14.69,17.22,12.99z"/>
									<path class="st1" d="M29,17.07h-0.17c0-0.96-0.88-1.22-1.79-1.22h-2.87c0.09,0.47,0.14,1.02,0.06,1.54h-0.14
										c-0.27-2.15-1.48-3.21-3.17-4.35v0.98h-0.14c-0.45-1.01-1.44-1.95-2.38-2.62h0c-0.25-0.18-0.51-0.36-0.76-0.54v1.05h-0.14
										c-0.4-1.04-1.12-1.82-2.15-2.75c-1.11-1-1.56-1.6-1.82-2.29c-0.16-0.42-0.2-0.75-0.21-1.21c-0.01-0.82,0.4-1.56,0.92-1.84
										v0.4c-0.26,0.34-0.39,0.77-0.39,1.2c0,0.4,0.09,0.85,0.3,1.23c0.63,1.19,2.73,2.65,4.07,3.55
										c4.16,2.79,4.99,3.28,5.68,4.76c0.08,0.17,0.15,0.39,0.22,0.64c0.6-0.09,2.78-0.42,3.18-0.49
										c0.08-0.01,0.24-0.03,0.32-0.04c0.38-0.24,0.67-0.54,0.93-0.92l-1.6-0.12c-0.08,0.18-0.16,0.34-0.24,0.46h-0.13
										c0.04-0.16,0.08-0.32,0.11-0.48l-0.41-0.03V13.9l0.44-0.05c0.08-0.45,0.12-0.88,0.13-1.28l-2.01-0.11
										c-0.01,0.21-0.01,0.4-0.01,0.58h-0.13c-0.04-0.2-0.08-0.4-0.1-0.59l-0.44-0.03v-0.13l0.42-0.02
										c-0.06-0.53-0.06-1.03-0.04-1.45l-1.17-0.05c0.06,0.1,0.11,0.21,0.15,0.32c0.25,0.71,0.19,1.54,0.11,1.92h-0.14
										c-0.02-0.44-0.17-0.98-0.31-1.32c-0.33-0.77-1.05-1.44-2.28-2.23v0.98h-0.14c-0.41-1.29-1.42-2-2.92-2.77
										c-1.24-0.64-1.63-1.4-1.56-2.59l0.42,0.25c0.11,1.11,0.96,1.75,1.86,1.75c0.53,0,1.02-0.07,1.5-0.17
										c0.69-0.14,1.32-0.26,1.86-0.07V6.16H21.5c-0.15,0.13-0.45,0.28-0.9,0.29c-0.49,0.01-1.42-0.27-1.42-1.31
										c0-0.9,0.76-1.04,1.38-1.04c0.33,0,0.88-0.01,1.07-0.02c0.14-0.01,0.24-0.03,0.31-0.1c0.07-0.07,0.09-0.14,0.11-0.23
										c0.02-0.11,0.02-0.23,0.02-0.42c0-0.07,0-0.66,0-0.66h-2.87v1.14L18.12,3.4V3.12h0.52V2.67H16.7V1.73h-0.66
										c-0.35,0-0.76,0.25-0.79,0.73c-0.03,0.46,0.18,0.85,0.65,0.85h0.09v0.55h-0.09c-0.83,0-1.45-0.62-1.45-1.45
										c0-0.86,0.73-1.52,1.62-1.52h1.4v0.94h5.45c0,0,0,1.13,0,1.4c0,0.24-0.01,0.55-0.04,0.75c-0.02,0.14-0.07,0.41-0.34,0.62
										c-0.17,0.13-0.42,0.18-0.82,0.18c-0.13,0-0.52-0.01-0.98-0.03c-0.62-0.04-0.8,0.2-0.82,0.42c-0.01,0.05,0,0.09,0,0.14
										c0.29-0.23,0.7-0.38,1.17-0.24c0.82,0.26,1.06,0.28,1.48-0.05l0.04,0.1c-0.05,0.07-0.13,0.17-0.25,0.26h0.4v2.15L24,6.77
										h3.47c0,0,1.47,0.77,1.71,0.89c0.21,0.11,0.3,0.25,0.33,0.45c0.03,0.17-0.02,0.38-0.1,0.51c-0.05,0.08-0.45,0.74-0.66,1.09
										c0.59,0.64,0.99,1.53,0.99,2.53c0,0.9-0.33,2.06-1.42,2.93c0.48,0.16,0.78,0.42,1.02,0.76L29,17.07z M21.27,5.48
										c-0.49-0.11-0.76-0.05-1.04,0.22c0.14,0.07,0.31,0.1,0.5,0.09C21,5.77,21.17,5.61,21.27,5.48z M20.99,8.58l1.37-0.82
										c-0.27-0.13-0.57-0.22-0.92-0.22c-0.47-0.01-1.27,0.21-1.66,0.27C19.95,7.92,20.57,8.31,20.99,8.58z M27.12,8.67l0.19-0.27
										l-0.29-0.39l0.05-0.09l0.83,0.45l-0.18,0.55c0.13,0.06,0.26,0.15,0.42,0.25l0.54-0.88l-1.39-0.72h-3.06l-2.49,1.5
										c0.47,0.32,0.9,0.68,1.2,1.03c0.67-0.97,1.84-1.59,3-1.59C26.31,8.5,26.75,8.54,27.12,8.67z M26.87,12.14
										c-0.02-0.46-0.07-0.87-0.15-1.24l-1.62-0.07c-0.11,0.49-0.18,0.98-0.22,1.42L26.87,12.14z M27.41,10.94
										c0.05,0.42,0.06,0.81,0.03,1.17l1.61-0.09c-0.04-0.37-0.14-0.71-0.3-1.03L27.41,10.94z M26.59,10.41
										c-0.17-0.58-0.37-0.98-0.47-1.17c-0.07,0-0.14-0.01-0.2-0.01c-0.11,0-0.23,0.01-0.34,0.03c-0.16,0.41-0.3,0.82-0.4,1.23
										L26.59,10.41z M27.04,9.44c0.12,0.32,0.21,0.63,0.28,0.93l0.98-0.05C27.96,9.93,27.53,9.62,27.04,9.44z M28.85,13.58
										c0.12-0.28,0.19-0.55,0.21-0.89l-1.67-0.09c-0.08,0.47-0.2,0.88-0.33,1.21L28.85,13.58z M24.73,9.5
										c-0.56,0.25-0.95,0.59-1.29,1.08l1.14-0.06C24.62,10.01,24.69,9.68,24.73,9.5z"/>
								</g>
								<g>
									<path class="st2" d="M22.6,19.53c0.47-0.08,0.91-0.44,0.91-0.99c0-0.49-0.21-1.04-1.67-1.04c-1.09,0-2.46,0-2.46,0v0.04
										c0.07,0.02,0.19,0.08,0.27,0.16c0.17,0.16,0.22,0.41,0.23,0.73v3.68c0,0,1.35,0,2.03,0c1.12,0,1.93-0.43,1.93-1.4
										C23.86,19.91,23.24,19.58,22.6,19.53z M21.56,17.95c0.52,0,0.87,0.11,0.87,0.67c0,0.59-0.47,0.76-1.01,0.76
										c-0.26,0-0.47,0-0.47,0v-1.42C20.95,17.95,21.24,17.95,21.56,17.95z M21.61,21.68c-0.22,0-0.66,0-0.66,0V19.8
										c0,0,0.36,0,0.63,0c0.86,0,1.19,0.26,1.19,0.9C22.77,21.4,22.34,21.68,21.61,21.68z"/>
									<path class="st2" d="M17.58,22.11h1.33l-1.69-2.17c0.68-0.18,1.19-0.55,1.19-1.23c0-0.79-0.47-1.21-1.71-1.21
										c-1.1,0-2.56,0-2.56,0v0.04c0.09,0.03,0.2,0.09,0.27,0.16c0.18,0.18,0.23,0.45,0.23,0.81c0,0,0,3.59,0,3.59h1.06v-2.04
										c0,0,0.23,0,0.39,0L17.58,22.11z M15.69,17.95c0,0,0.4,0,0.72,0c0.6,0,0.91,0.17,0.91,0.81c0,0.57-0.41,0.9-1.06,0.9
										c-0.26,0-0.56,0-0.56,0V17.95z"/>
									<path class="st2" d="M28.16,18.14c0.28,0.16,0.37,0.37,0.37,0.37c0.01,0.02,0.04,0.01,0.04,0.01l0.23-0.79
										c0,0-0.42-0.3-1.4-0.3c-1.5,0-2.62,0.75-2.62,2.4c0,1.86,1.33,2.34,2.51,2.34c1.09,0,1.52-0.35,1.52-0.35V21.3
										c0,0-0.39,0.36-1.22,0.36c-0.69,0-1.69-0.31-1.71-1.84c-0.02-1.41,0.59-1.87,1.42-1.87C27.77,17.95,28,18.05,28.16,18.14z"
										/>
								</g>
							</g>
						</g>
					</g>
				</g>
			</g>
		</g>
	</g>
</g>
<g>
	<path class="st0" d="M1.83,31.83H0.58v-5.02c0-0.41,0-0.74-0.16-0.95C0.33,25.74,0.15,25.64,0,25.63v-0.08h1.83
		C1.83,25.55,1.83,31.83,1.83,31.83z"/>
	<path class="st0" d="M6.4,31.83v-2.65c0-0.46-0.05-0.81-0.19-1.02c-0.17-0.28-0.46-0.39-0.78-0.39c-0.33,0-0.63,0.12-0.83,0.22
		v3.84H3.43V27.1H3.7c0.22,0.1,0.34,0.14,0.46,0.14c0.16,0,0.31-0.04,0.48-0.09c0.24-0.08,0.52-0.19,0.97-0.19
		c0.72,0,1.29,0.3,1.63,0.82c0.23,0.35,0.31,0.8,0.31,1.32v2.73L6.4,31.83L6.4,31.83z"/>
	<path class="st0" d="M11.9,28.38c-0.36-0.38-0.83-0.72-1.27-0.72c-0.42,0-0.72,0.21-0.72,0.52c0,0.4,0.51,0.54,1.04,0.75
		c0.74,0.29,1.61,0.67,1.61,1.54c0,0.97-0.95,1.53-1.92,1.53c-0.67,0-1.46-0.27-1.97-0.6l0.47-0.85c0.39,0.37,0.99,0.77,1.49,0.77
		c0.46,0,0.78-0.21,0.78-0.54c0-0.39-0.56-0.57-1.1-0.81c-0.7-0.31-1.55-0.67-1.55-1.53c0-0.91,0.95-1.46,1.9-1.46
		c0.68,0,1.28,0.27,1.71,0.5L11.9,28.38z"/>
	<path class="st0" d="M17.77,31.83H17.5c-0.22-0.1-0.33-0.14-0.46-0.14c-0.16,0-0.31,0.05-0.47,0.09c-0.25,0.08-0.52,0.19-0.98,0.19
		c-0.71,0-1.28-0.3-1.62-0.82c-0.23-0.35-0.32-0.8-0.32-1.32V27.1h1.16v2.65c0,0.47,0.06,0.81,0.19,1.02
		c0.17,0.28,0.46,0.39,0.78,0.39c0.33,0,0.64-0.12,0.84-0.22V27.1h1.16L17.77,31.83L17.77,31.83z"/>
	<path class="st0" d="M21.97,28c-0.36-0.15-0.63-0.24-0.88-0.24c-0.26,0-0.49,0.07-0.8,0.24v3.83h-1.16V27.1h0.26
		c0.18,0.1,0.33,0.14,0.46,0.14c0.15,0,0.3-0.04,0.49-0.1c0.32-0.1,0.64-0.17,0.97-0.17c0.29,0,0.61,0.05,1,0.18L21.97,28z"/>
	<path class="st0" d="M27.03,31.83h-0.26c-0.17-0.09-0.3-0.14-0.46-0.14c-0.13,0-0.27,0.05-0.44,0.12C25.62,31.9,25.31,32,24.93,32
		c-0.88,0-1.58-0.44-1.94-1.09c-0.22-0.4-0.31-0.89-0.31-1.38c0-0.98,0.39-1.65,0.97-2.1c0.41-0.31,0.95-0.46,1.45-0.46
		c0.42,0,0.87,0.12,1.13,0.21l0.8-0.18L27.03,31.83L27.03,31.83z M25.14,27.68c-0.65,0-1.26,0.56-1.26,1.79
		c0,0.72,0.17,1.26,0.53,1.56c0.16,0.15,0.38,0.26,0.65,0.26c0.32,0,0.67-0.16,0.81-0.3v-3.1C25.64,27.75,25.35,27.68,25.14,27.68z"
		/>
	<path class="st0" d="M31.35,31.83v-2.65c0-0.46-0.05-0.81-0.19-1.02c-0.17-0.28-0.46-0.39-0.78-0.39c-0.33,0-0.63,0.12-0.83,0.22
		v3.84h-1.16V27.1h0.26c0.22,0.1,0.34,0.14,0.46,0.14c0.16,0,0.31-0.04,0.48-0.09c0.24-0.08,0.52-0.19,0.97-0.19
		c0.72,0,1.29,0.3,1.63,0.82c0.23,0.35,0.31,0.8,0.31,1.32v2.73L31.35,31.83L31.35,31.83z"/>
	<path class="st0" d="M37.76,31.35c-0.32,0.24-0.86,0.65-1.8,0.65c-1.32,0-2.41-0.99-2.41-2.45c0-1.52,1.01-2.57,2.44-2.57
		c0.67,0,1.22,0.23,1.73,0.52l-0.46,0.9c-0.57-0.55-0.87-0.74-1.33-0.74c-0.52,0-1.18,0.53-1.18,1.66c0,1.26,0.71,1.95,1.41,1.95
		c0.27,0,0.74-0.11,1.28-0.47L37.76,31.35z"/>
	<path class="st0" d="M40.9,32c-1.41,0-2.41-1.08-2.41-2.51c0-1.44,1.03-2.51,2.4-2.51c1.12,0,2.12,0.7,2.12,2.06
		c0,0.09-0.01,0.3-0.03,0.46l-3.28,0.06c0.09,1,0.67,1.7,1.43,1.7c0.44,0,0.89-0.16,1.42-0.48l0.33,0.56
		C42.15,31.85,41.52,32,40.9,32z M41.74,28.83c0.01-0.77-0.38-1.17-0.85-1.17c-0.56,0-1.04,0.47-1.14,1.26L41.74,28.83z"/>
</g>
</svg>
