<?xml version="1.0" encoding="utf-8"?>
<!-- Generator: Adobe Illustrator 26.0.1, SVG Export Plug-In . SVG Version: 6.00 Build 0)  -->
<svg version="1.1" id="Layer_1" xmlns="http://www.w3.org/2000/svg" xmlns:xlink="http://www.w3.org/1999/xlink" x="0px" y="0px"
	 viewBox="0 0 43 32" style="enable-background:new 0 0 43 32;" xml:space="preserve">
<style type="text/css">
	.st0{fill:#006349;}
</style>
<g>
	<path class="st0" d="M14.01,13.2c-0.05,0.22-0.28,0.38-0.49,0.38c-0.05,0-0.16,0-0.22-0.05l-5.63-2.9
		c-0.16-0.05-0.33-0.11-0.54-0.05c-0.44,0.05-0.76,0.38-0.82,0.82c-0.06,0.44,0.16,0.82,0.54,1.04l4.47,2.29
		c1.91,0.98,1.8,2.51,1.8,2.94c0,3.65-3.17,6.11-7.36,6.11c-2.67,0-4.8-1.48-5.51-3.33c-0.54-1.36-0.11-2.67,0.05-3.38
		c0.05-0.22,0.28-0.38,0.49-0.38c0.05,0,0.16,0,0.22,0.05l5.62,2.89c0.16,0.05,0.33,0.11,0.54,0.05c0.44-0.05,0.76-0.38,0.82-0.82
		c0.05-0.44-0.16-0.82-0.54-1.04l-4.47-2.29c-1.91-0.98-1.8-2.51-1.8-2.94c0-3.65,3.17-6.11,7.36-6.11c2.67,0,4.8,1.48,5.51,3.33
		C14.61,11.18,14.18,12.54,14.01,13.2 M28.36,13.2c-0.05,0.22-0.28,0.38-0.49,0.38c-0.05,0-0.16,0-0.22-0.05l-5.62-2.89
		c-0.16-0.05-0.33-0.11-0.54-0.05c-0.44,0.05-0.76,0.38-0.82,0.82c-0.05,0.44,0.16,0.82,0.54,1.04l4.47,2.29
		c1.91,0.98,1.8,2.51,1.8,2.94c0,3.65-3.17,6.11-7.36,6.11c-2.67,0-4.8-1.48-5.51-3.33c-0.54-1.36-0.11-2.67,0.05-3.38
		c0.05-0.22,0.28-0.38,0.49-0.38c0.05,0,0.16,0,0.22,0.05l5.62,2.89c0.16,0.05,0.33,0.11,0.54,0.05c0.44-0.05,0.76-0.38,0.82-0.82
		c0.05-0.44-0.16-0.82-0.54-1.04l-4.47-2.29c-1.91-0.98-1.8-2.5-1.8-2.94c0-3.65,3.17-6.11,7.36-6.11c2.67,0,4.8,1.48,5.51,3.33
		C28.95,11.18,28.52,12.54,28.36,13.2 M34.85,23.83c0.98,0,1.64,0.6,1.69,1.42c0,0.16,0.11,0.28,0.28,0.28h5.13
		c0.16,0,0.28-0.11,0.28-0.28v-0.28c0-0.71,0.11-1.64-0.98-2.18l-6.27-3.22c-0.49-0.28-0.71-0.54-0.6-1.15l1.09-6.93
		c0.11-0.54,0.54-0.92,1.09-0.87s0.92,0.6,0.82,1.15l-0.87,5.4c-0.11,0.76,0.05,0.98,0.71,1.31l3.76,1.91
		c0.28,0.11,0.6-0.05,0.66-0.38l1.31-8.35c0.54-3.22-1.58-5.18-5.62-5.18s-6.87,2.02-7.47,5.18l-1.09,6.98
		c-0.54,3.22,1.58,5.18,5.62,5.18L34.85,23.83z"/>
</g>
</svg>
