<?xml version="1.0" encoding="utf-8"?>
<!-- Generator: Adobe Illustrator 26.0.1, SVG Export Plug-In . SVG Version: 6.00 Build 0)  -->
<svg version="1.1" id="Layer_1" xmlns="http://www.w3.org/2000/svg" xmlns:xlink="http://www.w3.org/1999/xlink" x="0px" y="0px"
	 viewBox="0 0 43 32" style="enable-background:new 0 0 43 32;" xml:space="preserve">
<style type="text/css">
	.st0{fill:#003946;}
	.st1{fill:#EAAB00;}
</style>
<g>
	<path class="st0" d="M4.78,25.58c-0.16-0.65-0.41-1.94-1.81-1.94c-0.73,0-1.29,0.48-1.29,1.29c0,1.97,4.1,1.84,4.1,4.59
		c0,1.82-1.62,2.49-3.15,2.49c-1.12,0-1.84-0.3-2.26-0.51C0.06,30.68,0,30.11,0,29.07l0.6-0.13c0.17,0.77,0.6,2.57,2.24,2.57
		c0.81,0,1.34-0.56,1.34-1.42c0-2.17-3.97-1.99-3.97-4.62c0-1.63,1.21-2.3,2.85-2.3c0.96,0,1.53,0.2,2.02,0.48
		c0.1,0.63,0.14,1.31,0.14,1.96H4.78L4.78,25.58L4.78,25.58z M10.96,31.33c-0.39,0.24-0.98,0.65-1.94,0.65
		c-1.98,0-2.08-1.16-2.08-2.58v-1.86c0-0.45,0-1.02-0.39-1.02c-0.19,0-0.36,0.06-0.41,0.07v-0.37c0.96-0.33,1.67-0.42,2.33-0.46v3.6
		c0,1.01,0.19,1.87,1.45,1.87c0.48,0,0.79-0.24,0.96-0.33v-3.38c0-0.45,0-1.02-0.39-1.02c-0.19,0-0.36,0.06-0.41,0.07v-0.37
		c0.96-0.33,1.67-0.42,2.33-0.46v3.84c0,1.05,0,1.56,0.44,1.56c0.07,0,0.24,0.01,0.36-0.01l0.02,0.33c-0.59,0.2-1.29,0.39-1.93,0.51
		L10.96,31.33z M14.47,27.54c0-0.45,0-1.02-0.39-1.02c-0.19,0-0.36,0.06-0.41,0.07v-0.37c0.96-0.33,1.64-0.42,2.3-0.46v0.75
		c0.33-0.29,0.94-0.75,2.03-0.75c1.16,0,1.93,0.55,1.93,2.28v2.53c0,0.68,0.06,0.82,0.52,0.86l0.27,0.02v0.33h-3.13v-0.33l0.27-0.02
		c0.46-0.04,0.52-0.17,0.52-0.86v-1.82c0-1.01,0-2.24-1.33-2.24c-0.52,0-0.86,0.27-1.06,0.48v3.57c0,0.68,0.06,0.82,0.52,0.86
		l0.27,0.02v0.33h-3.1v-0.32l0.27-0.02c0.44-0.04,0.5-0.17,0.5-0.86v-3.02h0.03V27.54z M23.06,31.46l0.31-0.04
		c0.6-0.11,0.6-0.06,0.6-1.52v-4.71c0-1.25,0-1.4-0.6-1.48l-0.31-0.04v-0.33h3.49v0.33l-0.31,0.04c-0.6,0.09-0.6,0.25-0.6,1.48v5.93
		c0.39,0.09,0.79,0.17,1.18,0.17c1.81,0,1.82-0.87,2.19-1.93l0.46,0.09c-0.08,0.83-0.16,1.51-0.45,2.33h-5.96v-0.33H23.06z
		 M29.77,31.46l0.27-0.02c0.46-0.05,0.52-0.17,0.52-0.86v-3.03c0-0.45,0-1.02-0.39-1.02c-0.19,0-0.36,0.06-0.41,0.07v-0.37
		c0.96-0.33,1.67-0.42,2.33-0.46v4.81c0,0.68,0.06,0.81,0.52,0.86l0.27,0.02v0.33h-3.13L29.77,31.46L29.77,31.46z M30.34,23.8
		c0-0.48,0.39-0.88,0.9-0.88c0.48,0,0.9,0.4,0.9,0.88c0,0.54-0.41,0.91-0.9,0.91C30.73,24.7,30.34,24.32,30.34,23.8z M34.2,25.95
		c0-1.78,0.88-3.59,2.9-3.59c0.68,0,1.12,0.2,1.4,0.42c-0.09,0.4-0.19,0.64-0.51,0.96h-0.09C37.65,23.51,37.07,23,36.56,23
		c-0.77,0-0.82,1.03-0.82,2.22v0.73c0.39,0.01,1.17,0.06,1.6,0.11v0.33c-0.55,0.06-1.05,0.1-1.6,0.13v4.04
		c0,0.68,0.06,0.82,0.54,0.86l0.51,0.02v0.33h-3.39v-0.32l0.26-0.02c0.48-0.05,0.54-0.17,0.54-0.86v-4.04L34.2,25.95L34.2,25.95z
		 M42.96,31.16c-0.33,0.27-1.14,0.82-2.43,0.82c-1.51,0-3-0.96-3-3.03c0-2.04,1.47-3.19,2.94-3.19c2.07,0,2.39,1.34,2.54,2.09
		c-1.1,0.51-2.53,0.92-3.86,1.23c0.14,0.77,0.52,2.15,2.28,2.15c0.7,0,1.23-0.29,1.41-0.37L42.96,31.16z M41.45,27.93
		c-0.09-0.92-0.48-1.68-1.29-1.68c-1.12,0-1.12,1.99-1.12,2.23C39.87,28.35,40.68,28.18,41.45,27.93z"/>
</g>
<g>
	<path class="st1" d="M22.47,1.67c-0.03-0.31-0.04-0.64-0.01-0.95c0.01-0.15,0.04-0.31,0.07-0.45c0-0.03,0.01-0.1,0.03-0.17
		c0.01-0.06-0.04-0.1-0.1-0.07c-0.44,0.35-0.82,0.83-1.09,1.31c-0.23,0.39-0.41,0.84-0.45,1.31c0.58,0.07,1.15,0.19,1.7,0.36
		C22.64,2.55,22.51,2.12,22.47,1.67z M18.39,2.69c0.51-0.09,1.03-0.12,1.56-0.12c-0.01-0.07-0.03-0.15-0.04-0.2
		c-0.06-0.22-0.19-0.42-0.28-0.63c-0.1-0.23-0.2-0.47-0.26-0.7c-0.06-0.19-0.1-0.36-0.12-0.55c-0.01-0.1-0.01-0.22-0.01-0.32
		c0-0.01,0-0.06,0-0.1c0-0.06-0.06-0.09-0.1-0.04c-0.26,0.35-0.45,0.77-0.6,1.21c-0.1,0.31-0.17,0.61-0.19,0.93
		c0,0.15,0,0.28,0.03,0.42C18.36,2.61,18.38,2.66,18.39,2.69z M15.9,3.36c0.01,0.03,0.03,0.06,0.04,0.09
		c0.04-0.01,0.1-0.04,0.15-0.07c0.38-0.17,0.76-0.31,1.15-0.42c-0.01-0.04-0.04-0.1-0.07-0.15c-0.1-0.17-0.26-0.32-0.39-0.47
		c-0.15-0.17-0.28-0.35-0.41-0.54c-0.09-0.15-0.17-0.29-0.23-0.45c-0.03-0.09-0.06-0.17-0.09-0.26c0-0.01-0.01-0.04-0.03-0.09
		C16,0.95,15.95,0.94,15.93,1c-0.15,0.36-0.2,0.77-0.22,1.16c0,0.28,0,0.57,0.06,0.83C15.81,3.12,15.86,3.24,15.9,3.36z M25.57,4.58
		c0.54,0.44,1.03,0.92,1.47,1.47c0.32-0.44,0.5-0.95,0.74-1.43c0.17-0.33,0.38-0.67,0.63-0.95c0.12-0.15,0.23-0.28,0.38-0.39
		c0.03-0.03,0.09-0.09,0.16-0.15c0.06-0.04,0.01-0.15-0.04-0.13c-0.67,0.06-1.37,0.26-1.97,0.55C26.41,3.81,25.93,4.14,25.57,4.58z
		 M28.26,8.09c0.04,0.1,0.09,0.22,0.13,0.32c0.48-0.36,0.82-0.89,1.22-1.31c0.28-0.31,0.58-0.58,0.92-0.83
		c0.16-0.12,0.33-0.22,0.51-0.31c0.04-0.01,0.12-0.06,0.2-0.1c0.07-0.03,0.06-0.15-0.01-0.16c-0.71-0.12-1.5-0.1-2.21,0.03
		c-0.6,0.1-1.19,0.33-1.69,0.68C27.68,6.94,28,7.49,28.26,8.09z M25.35,2.74c0.07-0.33,0.16-0.68,0.29-1
		c0.06-0.16,0.15-0.31,0.23-0.45c0.01-0.03,0.06-0.1,0.1-0.16c0.03-0.06-0.01-0.13-0.07-0.1c-0.57,0.23-1.14,0.6-1.59,1
		C23.92,2.38,23.59,2.8,23.4,3.3c0.58,0.25,1.15,0.55,1.67,0.92C25.24,3.75,25.25,3.22,25.35,2.74z M30.56,11.77
		c-0.48-0.19-1-0.31-1.53-0.26c0.01,0.64-0.03,1.28-0.13,1.91c0.51-0.04,0.99-0.26,1.49-0.39c0.33-0.09,0.68-0.16,1.03-0.17
		c0.17,0,0.33,0,0.5,0c0.03,0,0.12,0,0.19,0.01c0.07,0,0.1-0.07,0.06-0.12C31.72,12.34,31.13,12.01,30.56,11.77z M32.22,9.19
		c-0.6-0.29-1.31-0.47-1.97-0.54c-0.57-0.06-1.15-0.01-1.7,0.19c0.23,0.67,0.38,1.35,0.45,2.04c0.52-0.2,0.96-0.57,1.44-0.86
		c0.32-0.2,0.67-0.36,1.03-0.5c0.17-0.06,0.35-0.1,0.52-0.15c0.04,0,0.12-0.03,0.2-0.04C32.27,9.33,32.3,9.22,32.22,9.19z
		 M25.89,18.75c-0.35,0.31-0.71,0.58-1.11,0.83c0.26,0.26,0.6,0.42,0.9,0.63c0.2,0.15,0.41,0.31,0.58,0.5
		c0.09,0.09,0.16,0.19,0.23,0.28c0.01,0.01,0.04,0.06,0.07,0.12c0.03,0.04,0.09,0.03,0.09-0.01c0.01-0.45-0.06-0.92-0.2-1.35
		C26.34,19.37,26.17,19.02,25.89,18.75z M27.65,16.68c-0.28,0.45-0.6,0.86-0.93,1.25c0.38,0.2,0.79,0.25,1.18,0.39
		c0.26,0.09,0.54,0.19,0.79,0.33c0.12,0.07,0.23,0.15,0.33,0.23c0.01,0.01,0.07,0.06,0.13,0.09c0.04,0.03,0.1,0,0.09-0.06
		c-0.13-0.48-0.38-0.98-0.67-1.38C28.32,17.2,28.02,16.9,27.65,16.68z M29.98,14.83c-0.36-0.29-0.8-0.52-1.25-0.64
		c-0.15,0.57-0.35,1.11-0.61,1.63c0.47,0.1,0.92,0.03,1.38,0.04c0.32,0,0.64,0.04,0.95,0.12c0.15,0.03,0.29,0.09,0.44,0.15
		c0.03,0.01,0.1,0.03,0.16,0.06c0.06,0.01,0.12-0.03,0.09-0.09C30.84,15.62,30.42,15.18,29.98,14.83z M18.04,19.27
		c-1.49,0.19-2.87,0.04-3.96-0.41c0.48,0.39,1,0.74,1.57,1.03c1.34,0.68,2.85,1.06,4.46,1.02c0.68-0.01,1.35-0.12,1.98-0.26
		c-1.08-0.12-2.1-0.42-3.06-0.86C18.7,19.64,18.36,19.46,18.04,19.27z M26.08,15.5c0,0,0.04-0.06,0-0.12c-0.04-0.04-0.1,0-0.1,0
		c-0.89,0.87-1.97,1.67-3.22,2.34c-0.23,0.13-0.47,0.25-0.71,0.35c-1.03,0.48-2.08,0.83-3.09,1.03c0.29,0.17,0.61,0.32,0.92,0.47
		c0.93,0.42,1.95,0.68,3,0.83c0.42-0.15,0.82-0.32,1.21-0.52c-0.57-0.42-1.09-0.89-1.6-1.37C24.03,17.7,25.26,16.62,26.08,15.5z
		 M11.71,13.78c0.07,0.03,0.15,0.07,0.22,0.12c0.28,0.13,0.58,0.23,0.92,0.29c0.28,0.06,0.58,0.1,0.92,0.12
		c-0.13-0.31-0.25-0.63-0.35-0.95c-0.16-0.5-0.28-1.02-0.36-1.54c-0.03-0.17-0.04-0.35-0.07-0.52c-0.01-0.15-0.03-0.29-0.03-0.45
		c0-0.07,0-0.16,0-0.23c-0.01-0.31-0.01-0.61,0-0.9c-0.36-0.04-0.67-0.15-0.92-0.28C12,9.41,11.97,9.4,11.94,9.37
		c-0.16-0.1-0.31-0.22-0.41-0.35c-0.06-0.07-0.1-0.15-0.15-0.23c-0.03-0.07-0.06-0.16-0.09-0.23c-0.13,0.36-0.25,0.73-0.33,1.12
		c-0.03,0.15-0.07,0.31-0.09,0.47c-0.06,0.31-0.1,0.63-0.12,0.93c0,0.07,0,0.16-0.01,0.23c-0.01,0.23-0.01,0.47-0.01,0.7
		c0,0.31,0.03,0.61,0.07,0.9C10.98,13.26,11.3,13.55,11.71,13.78z M14.39,9.69c-0.23,0.01-0.47,0.03-0.68,0.03
		c0,0.22,0,0.42,0.01,0.64l0,0c0,0.07,0.01,0.15,0.01,0.22c0,0.12,0.01,0.23,0.03,0.36c0.06,0.57,0.16,1.12,0.29,1.65
		c0.15,0.6,0.35,1.16,0.58,1.7c1.21-0.04,2.61-0.35,4.03-0.89c-0.57-1.03-1.05-2.07-1.46-3.07c-0.07-0.17-0.15-0.36-0.22-0.54
		c0.26-0.1,0.52-0.22,0.8-0.35c1.67-0.8,3-1.83,3.77-2.85c0.04-0.07,0.09-0.13,0.15-0.2c0,0,0.04-0.07,0-0.13
		c-0.04-0.04-0.12,0-0.12,0c-0.15,0.15-0.29,0.28-0.47,0.42c-0.77,0.66-1.75,1.28-2.87,1.82c-0.51,0.23-1.02,0.44-1.51,0.61
		c-0.5,0.17-0.98,0.31-1.43,0.41C14.98,9.6,14.68,9.66,14.39,9.69z M11.97,8.44c0.13,0.13,0.31,0.23,0.51,0.31
		c0.06,0.01,0.12,0.04,0.17,0.06c0.1,0.03,0.23,0.06,0.35,0.09c0.01-0.15,0.03-0.28,0.06-0.42c0.01-0.12,0.03-0.22,0.06-0.33
		c0.07-0.36,0.16-0.73,0.26-1.08c0.23-0.76,0.52-1.47,0.9-2.16c0.1-0.2,0.2-0.39,0.32-0.57c0.03-0.04,0.06-0.1,0.1-0.16
		c-0.28,0.19-0.54,0.39-0.79,0.6c-0.38,0.32-0.73,0.68-1.06,1.06c-0.48,0.58-0.9,1.21-1.24,1.91c0.01,0.12,0.04,0.23,0.09,0.33
		C11.77,8.22,11.85,8.34,11.97,8.44z M13.92,7.48c-0.03,0.13-0.04,0.28-0.07,0.41c-0.06,0.35-0.1,0.7-0.12,1.06
		c0.52,0,1.12-0.06,1.76-0.2c0.33-0.07,0.68-0.17,1.03-0.28c-0.04-0.12-0.07-0.23-0.12-0.35c-0.17-0.51-0.31-0.99-0.44-1.44
		c-0.04-0.16-0.09-0.31-0.13-0.47c-0.07-0.25-0.13-0.5-0.19-0.71c-0.12-0.45-0.2-0.84-0.26-1.18c-0.03-0.15-0.06-0.28-0.07-0.39
		c0-0.03-0.01-0.06-0.01-0.09c-0.03,0.04-0.06,0.09-0.09,0.13c-0.1,0.19-0.2,0.38-0.29,0.57c-0.29,0.61-0.54,1.24-0.73,1.89
		C14.07,6.79,13.99,7.13,13.92,7.48z M17.15,18.66c-0.98-0.74-1.83-1.66-2.5-2.69c-0.17-0.26-0.33-0.54-0.48-0.82
		c-0.63,0-1.18-0.07-1.67-0.22c-0.26-0.07-0.51-0.17-0.74-0.29c-0.07-0.03-0.13-0.07-0.2-0.12c-0.22-0.13-0.41-0.29-0.55-0.47
		c0.12,0.44,0.26,0.87,0.44,1.28c0.03,0.06,0.06,0.13,0.09,0.2c0.1,0.23,0.22,0.45,0.33,0.66c0.1,0.19,0.22,0.38,0.33,0.55
		c0.2,0.31,0.42,0.61,0.67,0.89C13.83,18.44,15.38,18.79,17.15,18.66z M20.37,13.55c-0.44,0.22-0.87,0.41-1.3,0.57
		c-1.43,0.57-2.81,0.9-4.03,1c0.15,0.26,0.31,0.52,0.47,0.77c0.7,1.05,1.57,1.95,2.56,2.66c1.11-0.17,2.3-0.51,3.48-1.02
		c-0.79-0.87-1.47-1.82-2.08-2.77c0.23-0.1,0.48-0.22,0.71-0.33c2.2-1.09,3.89-2.55,4.81-4c0,0,0.04-0.07,0-0.12
		c-0.06-0.06-0.12,0-0.12,0C23.76,11.5,22.21,12.65,20.37,13.55z"/>
</g>
</svg>
