<?xml version="1.0" encoding="utf-8"?>
<!-- Generator: Adobe Illustrator 26.0.1, SVG Export Plug-In . SVG Version: 6.00 Build 0)  -->
<svg version="1.1" id="Layer_1" xmlns="http://www.w3.org/2000/svg" xmlns:xlink="http://www.w3.org/1999/xlink" x="0px" y="0px"
	 viewBox="0 0 43 32" style="enable-background:new 0 0 43 32;" xml:space="preserve">
<style type="text/css">
	.st0{fill:#163D22;}
	.st1{fill:#00B625;}
</style>
<g>
	<path class="st0" d="M33.06,31.86c-0.53,0-1.04,0-1.57,0c-0.01-0.09-0.01-0.17-0.02-0.25c0-0.73-0.01-1.45-0.01-2.18
		c0-0.1-0.02-0.21-0.04-0.31c-0.07-0.3-0.21-0.55-0.54-0.6c-0.39-0.07-0.77,0.09-0.9,0.43c-0.11,0.28-0.18,0.59-0.2,0.9
		c-0.03,0.59-0.01,1.18-0.01,1.78c0,0.08,0,0.15,0,0.25c-0.51,0-1.01,0-1.5,0c-0.03,0-0.08-0.06-0.09-0.11
		c-0.02-0.05-0.01-0.11-0.01-0.17c0-1.35,0-2.69,0-4.04c0-0.08,0-0.15,0-0.25c0.49,0,0.95,0,1.44,0c0,0.24,0,0.49,0,0.73
		c0.02,0.02,0.05,0.03,0.07,0.05c0.01-0.03,0.01-0.07,0.02-0.1c0.43-0.68,1.08-0.88,1.83-0.8c0.97,0.1,1.52,0.75,1.52,1.73
		c0,0.91,0,1.82,0,2.73C33.06,31.71,33.06,31.77,33.06,31.86z"/>
	<path class="st0" d="M16.47,31.07c-0.06,0.07-0.09,0.09-0.1,0.12c-0.54,0.91-1.92,0.96-2.58,0.54c-0.53-0.33-0.74-0.84-0.76-1.43
		c-0.02-0.97-0.01-1.95-0.01-2.92c0-0.02,0.01-0.04,0.02-0.08c0.51,0,1.02,0,1.56,0c0,0.07,0,0.14,0,0.22c0,0.65,0,1.3,0,1.95
		c0,0.2,0.02,0.4,0.06,0.59c0.08,0.37,0.27,0.56,0.55,0.59c0.41,0.04,0.75-0.09,0.89-0.43c0.1-0.25,0.18-0.52,0.19-0.79
		c0.03-0.63,0.01-1.25,0.01-1.88c0-0.08,0-0.15,0-0.24c0.54,0,1.06,0,1.58,0c0,1.52,0,3.02,0,4.55c-0.47,0-0.93,0-1.43,0
		C16.47,31.61,16.47,31.37,16.47,31.07z"/>
	<path class="st0" d="M4.34,31.86c-0.53,0-1.04,0-1.56,0c0-1.52,0-3.03,0-4.56c0.47,0,0.93,0,1.42,0c0,0.25,0,0.5,0,0.79
		c0.05-0.06,0.08-0.08,0.1-0.11c0.56-0.96,2-0.97,2.65-0.51c0.41,0.29,0.61,0.71,0.68,1.2c0.02,0.13,0.02,0.27,0.02,0.4
		c0,0.92,0,1.85,0,2.79c-0.52,0-1.03,0-1.58,0c0-0.08,0-0.16,0-0.24c-0.01-0.75-0.02-1.51-0.03-2.26c0-0.07-0.01-0.14-0.03-0.21
		c-0.09-0.38-0.28-0.59-0.57-0.62c-0.41-0.05-0.73,0.11-0.9,0.45c-0.19,0.36-0.18,0.75-0.19,1.14C4.33,30.68,4.34,31.25,4.34,31.86z
		"/>
	<path class="st0" d="M25.65,29.01c0.09-0.27-0.16-0.61-0.49-0.7c-0.42-0.11-0.84-0.08-1.25,0.01c-0.24,0.05-0.47,0.15-0.74,0.24
		c0-0.34,0-0.66,0.01-0.99c0-0.04,0.07-0.1,0.12-0.12c0.84-0.29,1.7-0.39,2.57-0.16c0.85,0.22,1.3,0.84,1.31,1.72
		c0,0.56-0.01,1.11,0,1.67c0.01,0.39,0.03,0.77,0.05,1.17c-0.46,0-0.93,0-1.41,0c-0.02-0.21-0.04-0.41-0.06-0.65
		c-0.04,0.04-0.06,0.05-0.08,0.07c-0.6,0.75-1.57,0.93-2.41,0.46c-0.48-0.27-0.69-0.69-0.69-1.22c0-0.55,0.23-0.97,0.72-1.22
		c0.59-0.31,1.24-0.35,1.89-0.32C25.35,28.98,25.5,28.99,25.65,29.01z M25.65,29.81c-0.36,0.02-0.73,0.04-1.1,0.07
		c-0.08,0.01-0.16,0.06-0.23,0.1c-0.19,0.11-0.26,0.29-0.24,0.5c0.02,0.2,0.15,0.31,0.33,0.38C25.02,31.11,25.74,30.53,25.65,29.81z
		"/>
	<path class="st0" d="M39.86,30.03c0.01,0.55,0.48,0.82,0.96,0.87c0.56,0.06,1.11-0.02,1.63-0.27c0.04-0.02,0.08-0.03,0.13-0.05
		c0,0.35,0,0.68,0,1.01c0,0.05-0.05,0.12-0.09,0.13c-1.01,0.32-2.04,0.43-3.02-0.07c-1-0.5-1.34-1.43-1.21-2.48
		c0.19-1.52,1.48-2.1,2.74-1.98c1.33,0.13,1.92,1.05,2.01,2.31c0.01,0.17,0,0.34,0,0.53C41.96,30.03,40.92,30.03,39.86,30.03z
		 M41.56,29.12c-0.01-0.6-0.35-0.94-0.88-0.93c-0.49,0.01-0.86,0.42-0.83,0.93C40.41,29.12,40.98,29.12,41.56,29.12z"/>
	<path class="st0" d="M8.54,30.63c0.33,0.08,0.64,0.18,0.95,0.23c0.26,0.04,0.53,0.04,0.8,0.03c0.17-0.01,0.32-0.07,0.36-0.27
		c0.04-0.21-0.07-0.35-0.25-0.41c-0.26-0.1-0.54-0.17-0.81-0.25c-0.09-0.03-0.17-0.06-0.26-0.08c-0.53-0.18-0.89-0.51-0.92-1.11
		c-0.03-0.62,0.26-1.09,0.82-1.35c0.63-0.29,1.29-0.28,1.95-0.18c0.23,0.03,0.45,0.1,0.67,0.17c0.05,0.01,0.11,0.08,0.11,0.12
		c-0.03,0.33-0.07,0.67-0.11,1.02c-0.48-0.24-0.97-0.34-1.47-0.29c-0.19,0.02-0.41,0.03-0.47,0.27c-0.04,0.16,0.1,0.29,0.39,0.37
		c0.21,0.07,0.44,0.11,0.65,0.17c0.14,0.04,0.27,0.08,0.4,0.12c0.6,0.23,0.89,0.61,0.9,1.19c0.01,0.69-0.27,1.13-0.88,1.38
		c-0.54,0.22-1.1,0.24-1.66,0.2c-0.37-0.02-0.74-0.11-1.11-0.16c-0.11-0.02-0.17-0.07-0.15-0.2C8.49,31.29,8.51,30.97,8.54,30.63z"
		/>
	<path class="st0" d="M37.65,28.53c-0.33-0.07-0.63-0.17-0.94-0.18c-0.72-0.03-1.23,0.49-1.24,1.2c-0.01,0.69,0.52,1.24,1.22,1.25
		c0.18,0,0.37-0.01,0.55-0.04c0.17-0.03,0.33-0.09,0.56-0.16c0,0.37,0,0.72,0,1.07c0,0.05-0.05,0.12-0.09,0.14
		c-1.08,0.28-2.13,0.31-3.06-0.42c-0.77-0.61-0.93-1.45-0.75-2.37c0.18-0.9,0.78-1.45,1.64-1.71c0.68-0.2,1.36-0.19,2.04,0.03
		c0.15,0.05,0.21,0.13,0.18,0.29C37.7,27.94,37.68,28.25,37.65,28.53z"/>
	<path class="st0" d="M1.61,31.86c-0.54,0-1.06,0-1.61,0c0-2.04,0-4.07,0-6.12c0.53,0,1.06,0,1.61,0
		C1.61,27.77,1.61,29.8,1.61,31.86z"/>
	<path class="st0" d="M18.91,27.29c0.48,0,0.94,0,1.44,0c0,0.24,0,0.48,0,0.72c0.02,0.01,0.03,0.02,0.05,0.03
		c0.39-0.78,1.02-0.99,1.86-0.81c-0.02,0.43-0.05,0.86-0.07,1.27c-0.21,0-0.4,0-0.59,0c-0.45,0-0.82,0.24-0.96,0.66
		c-0.08,0.24-0.13,0.51-0.13,0.76c-0.02,0.63-0.01,1.27-0.01,1.92c-0.53,0-1.05,0-1.58,0C18.91,30.34,18.91,28.83,18.91,27.29z"/>
</g>
<path class="st1" d="M8.02,0h26.96v24.18H8.02V0z M22.66,16.81V7.54h-3.28v11.5c0,0,5.41,0.1,7.9,0c2.26-0.07,3.77-1.38,4.36-3.54
	c0.62-2.33,0.66-4.68,0.1-7.04c-0.36-1.54-1.24-2.78-2.85-3.28c-0.79-0.23-1.61-0.36-2.42-0.36c-5.05-0.03-15.73,0-15.73,0v2.1h4.62
	v12.12h3.21V6.91h6.98c1.57,0,2.39,0.66,2.75,2.16c0.36,1.41,0.33,2.85,0.2,4.26c-0.07,0.75-0.29,1.51-0.52,2.23
	c-0.26,0.69-0.82,1.18-1.57,1.28C25.02,16.81,22.66,16.81,22.66,16.81L22.66,16.81z"/>
</svg>
