<?xml version="1.0" encoding="utf-8"?>
<!-- Generator: Adobe Illustrator 26.0.1, SVG Export Plug-In . SVG Version: 6.00 Build 0)  -->
<svg version="1.1" id="Layer_1" xmlns="http://www.w3.org/2000/svg" xmlns:xlink="http://www.w3.org/1999/xlink" x="0px" y="0px"
	 viewBox="0 0 43 32" style="enable-background:new 0 0 43 32;" xml:space="preserve">
<style type="text/css">
	.st0{fill:#0280C8;}
</style>
<g>
	<path class="st0" d="M12.7,8.66c0-0.26,0.03-0.5,0.05-0.76c0.95,0.08,1.13,0.53,1.97,0.53c0.92,0,1.37-0.53,2.29-0.53
		c0.92,0,1.37,0.53,2.26,0.53c0.34,0,0.68-0.08,1.02-0.21v0.76c-0.32,0.13-0.66,0.21-1,0.21c-0.92,0-1.37-0.53-2.29-0.53
		s-1.37,0.53-2.29,0.53C13.86,9.16,13.7,8.74,12.7,8.66L12.7,8.66L12.7,8.66z"/>
	<path class="st0" d="M23.84,11.89c-0.21,0-0.39-0.03-0.6-0.08l0.66-0.68c0.87-0.03,1.02-0.53,2.23-0.53c1.26,0,1.39,0.53,2.31,0.53
		c0.68,0,1.1-0.29,1.68-0.45c-0.05,0.29-0.13,0.55-0.21,0.81c-0.45,0.16-0.87,0.37-1.44,0.37c-0.92,0-1.05-0.53-2.31-0.53
		C24.91,11.34,24.76,11.89,23.84,11.89L23.84,11.89L23.84,11.89z"/>
	<path class="st0" d="M18.01,0.73c2.23-0.97,4.78-0.97,7.01,0c-0.37,0.13-0.66,0.32-1.18,0.32c-0.92,0-1.39-0.53-2.31-0.53
		c-0.92,0-1.37,0.53-2.26,0.53C18.77,1.04,18.37,0.86,18.01,0.73L18.01,0.73z"/>
	<path class="st0" d="M15.67,2.2c0.47-0.42,0.97-0.76,1.5-1.08c0.79,0.05,1.23,0.5,2.07,0.53c0.92,0,1.37-0.53,2.29-0.53
		c0.92,0,1.39,0.53,2.31,0.53c0.84,0,1.02-0.45,2-0.53c0.47,0.26,0.89,0.55,1.31,0.89c-0.32-0.11-0.66-0.16-1.02-0.16
		c-1.21,0-1.37,0.53-2.29,0.53s-1.39-0.53-2.31-0.53c-0.92,0-1.37,0.53-2.26,0.53s-1.37-0.53-2.29-0.53
		C16.46,1.86,16.09,2.04,15.67,2.2L15.67,2.2L15.67,2.2z"/>
	<path class="st0" d="M14.3,3.72c0.18-0.26,0.37-0.5,0.58-0.74c0.81-0.05,1.26-0.53,2.1-0.53c0.92,0,1.37,0.53,2.26,0.53
		c0.92,0,1.37-0.53,2.29-0.53c0.92,0,1.39,0.53,2.31,0.53c0.92,0,1.05-0.53,2.29-0.53c1.1,0,1.34,0.42,2,0.53
		c0.21,0.24,0.42,0.5,0.6,0.76c-0.11,0-0.18,0.03-0.29,0.03c-0.92,0-1.05-0.53-2.31-0.53c-1.21,0-1.37,0.53-2.29,0.53
		c-0.92,0-1.39-0.53-2.31-0.53c-0.92,0-1.37,0.53-2.26,0.53c-0.89,0.03-1.37-0.53-2.29-0.53c-0.92,0-1.37,0.53-2.29,0.53
		C14.57,3.75,14.43,3.75,14.3,3.72L14.3,3.72L14.3,3.72z"/>
	<path class="st0" d="M13.65,4.83c0.11-0.21,0.21-0.39,0.34-0.6c0.24,0.08,0.47,0.13,0.74,0.13c0.92,0,1.37-0.53,2.29-0.53
		c0.92,0,1.37,0.53,2.26,0.55c0.92,0,1.37-0.53,2.29-0.53s1.39,0.53,2.31,0.53c0.92,0,1.05-0.53,2.29-0.53
		c1.26,0,1.39,0.53,2.31,0.53c0.21,0,0.42-0.03,0.63-0.08c0.13,0.21,0.24,0.42,0.34,0.63c-0.32,0.13-0.63,0.18-0.97,0.21
		c-0.92,0-1.05-0.53-2.31-0.53c-1.21,0-1.37,0.53-2.29,0.53c-0.92,0-1.39-0.53-2.31-0.53s-1.37,0.53-2.26,0.53s-1.37-0.53-2.29-0.53
		s-1.37,0.53-2.29,0.53C14.22,5.12,13.96,4.98,13.65,4.83L13.65,4.83L13.65,4.83z"/>
	<path class="st0" d="M13.15,6.01c0.08-0.24,0.16-0.45,0.26-0.68c0.45,0.16,0.71,0.37,1.31,0.37c0.92,0,1.37-0.53,2.29-0.53
		c0.92,0,1.37,0.53,2.26,0.53c0.92,0,1.37-0.53,2.29-0.53s1.39,0.53,2.31,0.53c0.92,0,1.05-0.53,2.29-0.53
		c1.26,0,1.39,0.53,2.31,0.53c0.42-0.03,0.84-0.13,1.21-0.29c0.11,0.21,0.18,0.45,0.26,0.68c-0.47,0.16-0.87,0.37-1.47,0.37
		c-0.92,0-1.05-0.53-2.31-0.53c-1.21,0-1.37,0.53-2.29,0.53c-0.92,0-1.39-0.53-2.31-0.53s-1.37,0.53-2.26,0.53s-1.37-0.53-2.29-0.53
		s-1.37,0.53-2.29,0.53C14.01,6.48,13.78,6.17,13.15,6.01L13.15,6.01L13.15,6.01z"/>
	<path class="st0" d="M12.83,7.32c0.05-0.26,0.11-0.5,0.16-0.74c0.76,0.13,0.97,0.5,1.73,0.5c0.92,0,1.37-0.53,2.29-0.53
		c0.92,0,1.37,0.53,2.26,0.53c0.92,0,1.37-0.53,2.29-0.53s1.39,0.53,2.31,0.53c0.92,0,1.05-0.53,2.29-0.53
		c1.26,0,1.39,0.53,2.31,0.53c0.66,0,1.08-0.29,1.6-0.45c0.05,0.24,0.11,0.47,0.16,0.71c-0.6,0.13-1.05,0.47-1.76,0.47
		c-0.92,0-1.05-0.53-2.31-0.53c-1.21,0-1.37,0.53-2.29,0.53c-0.92,0-1.39-0.53-2.31-0.53c-0.92,0-1.37,0.53-2.26,0.53
		c-0.89,0-1.37-0.53-2.29-0.53c-0.92,0-1.37,0.53-2.29,0.53C13.91,7.82,13.7,7.4,12.83,7.32L12.83,7.32L12.83,7.32z"/>
	<path class="st0" d="M25.39,16.7c-2.44,1.21-5.31,1.21-7.75,0H25.39z"/>
	<path class="st0" d="M27.23,15.46c-0.29,0.24-0.6,0.47-0.92,0.68h-9.59c-0.32-0.21-0.63-0.45-0.92-0.68H27.23z"/>
	<path class="st0" d="M19.71,11.84c-0.16,0.03-0.29,0.05-0.45,0.05c-0.92,0-1.37-0.53-2.29-0.53c-0.92,0-1.37,0.53-2.29,0.53
		c-0.71,0-0.95-0.32-1.6-0.45c-0.08-0.26-0.16-0.53-0.21-0.79c0.81,0.11,1.02,0.5,1.81,0.5c0.92,0,1.37-0.53,2.29-0.53
		c0.92,0,1.37,0.53,2.26,0.53l0.34,0.32c0.05,0.08,0.11,0.18,0.11,0.29C19.71,11.76,19.71,11.81,19.71,11.84L19.71,11.84
		L19.71,11.84z"/>
	<path class="st0" d="M19.92,9.82l0.05,0.03l0.26,0.21c-0.13-0.11-0.26-0.21-0.39-0.32L19.92,9.82L19.92,9.82L19.92,9.82z"/>
	<path class="st0" d="M19.79,9.71c0.16-0.03,0.32-0.11,0.47-0.16v0.5L20,9.84l-0.05-0.03l-0.08-0.05L19.79,9.71L19.79,9.71
		L19.79,9.71z"/>
	<path class="st0" d="M18.56,10.42c-0.5-0.16-0.92-0.42-1.58-0.42c-0.92,0-1.37,0.53-2.29,0.53c-0.81,0-1-0.42-1.92-0.53
		c-0.03-0.26-0.05-0.5-0.08-0.76c0.97,0.08,1.16,0.53,2,0.53c0.92,0,1.37-0.53,2.29-0.53c0.16,0,0.29,0.03,0.45,0.03l0.53,0.53
		L18.56,10.42L18.56,10.42L18.56,10.42z"/>
	<path class="st0" d="M22.71,10.26h-0.03V9.5c0.21,0.08,0.39,0.16,0.6,0.21L22.71,10.26L22.71,10.26z"/>
	<path class="st0" d="M26.12,10c-0.76,0-1.1,0.21-1.47,0.37l1.05-1.1c0.13,0,0.26-0.03,0.42-0.03c1.26,0,1.39,0.53,2.31,0.53
		c0.76,0,1.21-0.37,1.86-0.5c0,0.26-0.03,0.53-0.08,0.76c-0.63,0.13-1.05,0.47-1.79,0.47C27.51,10.53,27.38,10,26.12,10L26.12,10
		L26.12,10z"/>
	<path class="st0" d="M22.68,8.16c0.34,0.13,0.68,0.26,1.18,0.26c0.92,0,1.05-0.53,2.29-0.53c1.26,0,1.39,0.53,2.31,0.53
		c0.76,0,1.21-0.37,1.84-0.5c0,0.24,0,0.5,0,0.74c-0.68,0.13-1.1,0.5-1.89,0.5c-0.92,0-1.05-0.53-2.31-0.53
		c-1.21,0-1.37,0.53-2.29,0.53c-0.39,0-0.81-0.11-1.18-0.26L22.68,8.16L22.68,8.16L22.68,8.16z"/>
	<path class="st0" d="M28.46,14.2c-0.21,0.26-0.42,0.53-0.66,0.76H15.22c-0.24-0.24-0.45-0.5-0.66-0.76h5.57v-2.29
		c0-0.26-0.08-0.53-0.21-0.74l-1.65-1.63c0.34,0.13,0.71,0.21,1.05,0.21l1.08,0.92c0,0,0.26,0.16,0.26-0.16V8.06
		c0,0,0.81-0.37,1.63-0.05v2.81c0,0,0,0.42,0.34,0.08l1.13-1.13c0.24,0,0.45-0.03,0.68-0.08c0.16-0.05,0.32-0.13,0.47-0.21
		l0.05-0.03l-2.34,2.42c-0.11,0.18-0.16,0.39-0.13,0.63v1.71L28.46,14.2L28.46,14.2z"/>
</g>
<g>
	<path class="st0" d="M11.44,21.23l-0.16,0.52c-0.18-0.36-0.56-0.56-0.97-0.58c-0.99,0-2.07,1.19-2.45,2.67
		c-0.38,1.48,0,2.67,1.01,2.67c0.45,0,0.9-0.38,1.28-0.94l-0.22,0.76h1.75l1.57-5.1H11.44L11.44,21.23z M10.74,23.82
		c-0.22,0.61-0.47,1.1-0.83,1.1c-0.27,0-0.22-0.47-0.02-1.1c0.2-0.63,0.54-1.12,0.79-1.12C11.06,22.69,10.97,23.21,10.74,23.82
		L10.74,23.82z"/>
	<path class="st0" d="M22.94,21.23l-0.13,0.52c-0.2-0.36-0.56-0.58-0.97-0.58c-0.99,0-2.07,1.19-2.45,2.67
		c-0.38,1.48,0.02,2.67,1.01,2.67c0.45,0,0.9-0.38,1.28-0.94l-0.22,0.76h1.75l1.57-5.1H22.94L22.94,21.23z M22.25,23.82
		c-0.22,0.61-0.47,1.1-0.83,1.1c-0.27,0-0.25-0.47-0.02-1.1s0.54-1.12,0.81-1.12C22.54,22.69,22.45,23.21,22.25,23.82L22.25,23.82z"
		/>
	<path class="st0" d="M27.16,23.43c0.02-0.2,0-0.38-0.13-0.45c-0.16-0.09-0.45,0.09-0.58,0.4l-0.04,0.13l-0.88,2.83h-1.82l1.59-5.1
		h1.82L26.89,22c0.43-0.74,1.28-1.1,1.91-0.76c0.63,0.29,0.56,0.94,0.4,1.62l-1.1,3.5h-1.82L27.16,23.43L27.16,23.43z"/>
	<path class="st0" d="M7.4,24c-0.79,2.58-2.52,3.05-3.37,2.81c-0.47-0.16-0.83-0.54-0.99-1.01c-0.45,0.7-1.21,1.3-2.13,1.01
		c-0.94-0.29-1.15-1.35-0.63-2.81l1.8-5.55h1.77l-1.86,5.86c-0.09,0.31-0.04,0.54,0.22,0.54c0.22,0,0.43-0.18,0.58-0.54
		c0.02-0.04,0.04-0.09,0.07-0.13l1.84-5.71h1.77l-1.84,5.86c-0.09,0.31-0.04,0.54,0.22,0.54c0.22,0,0.43-0.18,0.58-0.54
		c0.02-0.04,0.02-0.09,0.04-0.13l1.86-5.71h1.84L7.4,24L7.4,24z"/>
	<path class="st0" d="M41.18,21.23l-0.16,0.52c-0.18-0.36-0.56-0.58-0.97-0.58c-0.99,0-2.07,1.19-2.45,2.67
		c-0.38,1.48,0,2.67,1.01,2.67c0.45,0,0.9-0.38,1.28-0.94l-0.22,0.76h1.75l1.57-5.1H41.18L41.18,21.23z M40.48,23.82
		c-0.2,0.61-0.47,1.1-0.83,1.1c-0.27,0-0.25-0.47-0.02-1.1c0.22-0.63,0.54-1.12,0.81-1.12C40.8,22.69,40.71,23.21,40.48,23.82
		L40.48,23.82z"/>
	<path class="st0" d="M33.68,24.13c0.38-1.17,0.34-2.45-0.54-2.9c-1.01-0.49-2.43-0.04-3.35,1.28c-0.94,1.33-1.03,3.05-0.02,3.62
		c1.01,0.56,2.4,0.22,3.32-1.01l-1.35-0.7c-0.2,0.38-0.54,0.58-0.74,0.45c-0.2-0.11-0.2-0.45-0.07-0.74L33.68,24.13L33.68,24.13z
		 M31.43,22.81c0.2-0.36,0.47-0.45,0.65-0.34c0.13,0.09,0.18,0.27,0.09,0.61h-0.85C31.36,22.99,31.39,22.9,31.43,22.81z"/>
	<path class="st0" d="M15.35,25.41c-0.29,0.45-0.79,1.06-1.57,1.06c-1.37,0-1.19-1.42-0.94-2.22c0.25-0.81,0.97-3.01,0.97-3.01h1.71
		l-1.1,3.48c-0.07,0.22,0.02,0.31,0.16,0.31s0.25-0.07,0.38-0.31l1.12-3.48h1.59l-1.1,3.44c-0.07,0.2,0,0.31,0.16,0.31
		s0.22-0.04,0.34-0.27l1.15-3.48h1.66c0,0-0.56,1.91-1.03,3.28s-1.24,1.91-2.31,1.91C15.75,26.44,15.37,25.95,15.35,25.41
		L15.35,25.41z"/>
	<path class="st0" d="M32.13,30.35c0.25-0.79,0.22-1.62-0.36-1.91c-0.65-0.34-1.59-0.02-2.22,0.85c-0.63,0.88-0.7,2.02-0.02,2.4
		c0.67,0.38,1.59,0.13,2.2-0.67l-0.9-0.45c-0.13,0.25-0.36,0.38-0.49,0.29c-0.13-0.07-0.13-0.29-0.04-0.49L32.13,30.35L32.13,30.35z
		 M30.65,29.48c0.13-0.22,0.31-0.29,0.43-0.22c0.11,0.07,0.11,0.18,0.07,0.4h-0.56C30.6,29.61,30.62,29.54,30.65,29.48L30.65,29.48z
		"/>
	<path class="st0" d="M21.73,28.35l-0.09,0.34c-0.13-0.22-0.38-0.38-0.65-0.38c-0.65,0-1.37,0.81-1.62,1.77
		c-0.25,0.97,0,1.77,0.65,1.77c0.29,0,0.58-0.25,0.85-0.63l-0.16,0.52h1.17l1.03-3.37h-1.19V28.35z M21.26,30.06
		c-0.13,0.4-0.31,0.72-0.54,0.72c-0.18,0-0.16-0.31-0.02-0.72c0.13-0.4,0.36-0.74,0.54-0.74C21.46,29.32,21.41,29.66,21.26,30.06
		L21.26,30.06z"/>
	<path class="st0" d="M34.82,24.02c-0.61-0.45-0.83-1.08-0.52-1.82c0.34-0.9,1.3-1.44,2.56-1.19c0.58,0.13,0.79,0.27,1.15,0.52
		l-0.99,1.28c-0.07-0.13-0.16-0.25-0.29-0.31c-0.29-0.18-0.61-0.16-0.7,0.02c-0.09,0.2-0.13,0.38,0.34,0.58l0.07,0.02
		c0.31,0.2,0.67,0.34,0.81,1.17c0,1.53-1.53,2.25-2.76,2c-0.49-0.07-0.94-0.29-1.33-0.63l1.01-1.28c0.07,0.2,0.2,0.36,0.38,0.45
		c0.31,0.16,0.65,0.11,0.76-0.09c0.11-0.2,0.09-0.4-0.29-0.58L34.82,24.02L34.82,24.02L34.82,24.02z"/>
	<path class="st0" d="M24.69,29.86c0.02-0.13,0-0.27-0.09-0.31c-0.11-0.04-0.29,0.07-0.38,0.27c-0.02,0.02-0.02,0.04-0.04,0.09
		l-0.58,1.86h-1.21l1.06-3.39h1.21l-0.16,0.49c0.29-0.49,0.85-0.72,1.26-0.52c0.4,0.2,0.38,0.63,0.27,1.08l-0.72,2.36h-1.21
		L24.69,29.86L24.69,29.86z"/>
	<path class="st0" d="M9.69,29.95c0.02-0.16,0-0.27-0.09-0.31c-0.11-0.04-0.29,0.07-0.38,0.27c-0.02,0.02-0.02,0.04-0.04,0.09
		l-0.58,1.86H7.38l1.06-3.37h1.21l-0.16,0.49c0.27-0.49,0.83-0.72,1.26-0.52c0.4,0.2,0.36,0.63,0.27,1.08l-0.72,2.34H9.08
		L9.69,29.95L9.69,29.95L9.69,29.95z"/>
	<polygon class="st0" points="7.13,27.05 8.43,27.05 6.88,31.86 5.58,31.86 	"/>
	<path class="st0" d="M14.32,28.42h1.24l-0.7,2.09c-0.04,0.13-0.02,0.25,0.16,0.29c0.13,0.02,0.25-0.07,0.29-0.18l0.74-2.2h1.24
		l-0.72,2.16c-0.27,0.76-0.92,1.28-1.91,1.28s-1.28-0.63-1.06-1.28C13.8,29.9,14.32,28.42,14.32,28.42L14.32,28.42L14.32,28.42z"/>
	<path class="st0" d="M17.64,28.42c0,0-0.99,2.94-1.1,3.35h1.24c0,0,0.34-0.97,0.4-1.19c0,0,0.29-1.33,1.15-0.85l0.45-1.39
		c0,0-0.54-0.09-1.03,0.43l0.13-0.34H17.64L17.64,28.42z"/>
	<path class="st0" d="M28.18,29.61c0.02-0.18-0.02-0.31-0.11-0.36c-0.18-0.09-0.45,0.13-0.7,0.65c-0.2,0.45-0.29,0.83-0.04,0.94
		c0.16,0.07,0.38-0.09,0.54-0.38l0.9,0.38c-0.49,0.94-1.62,1.28-2.27,0.88c-0.65-0.4-0.63-1.35-0.09-2.29
		c0.58-0.97,1.66-1.37,2.36-1.01c0.4,0.22,0.52,0.63,0.45,1.12L28.18,29.61L28.18,29.61L28.18,29.61z"/>
	<path class="st0" d="M11.71,30.47c-0.4-0.29-0.56-0.72-0.34-1.21c0.22-0.61,0.88-0.97,1.71-0.81c0.27,0.04,0.54,0.18,0.74,0.34
		l-0.65,0.85c-0.04-0.09-0.11-0.16-0.18-0.22c-0.2-0.11-0.4-0.11-0.47,0.02c-0.07,0.13-0.09,0.27,0.22,0.4l0.04,0.02
		c0.2,0.13,0.45,0.22,0.54,0.79c0,1.01-1.01,1.48-1.82,1.33c-0.31-0.04-0.63-0.2-0.85-0.43l0.65-0.85c0.04,0.13,0.13,0.25,0.27,0.29
		c0.2,0.11,0.43,0.09,0.49-0.07c0.07-0.13,0.07-0.29-0.2-0.4L11.71,30.47L11.71,30.47L11.71,30.47z"/>
</g>
</svg>
